<?xml version="1.0" encoding="UTF-8"?>
<svg id="Calque_1" data-name="Calque 1" xmlns="http://www.w3.org/2000/svg" viewBox="0 0 117.72 113.62">
  <defs>
    <style>
      .cls-1 {
        fill: #9848ff;
      }

      .cls-2 {
        fill: #e71d73;
      }
    </style>
  </defs>
  <g>
    <path d="M16.64,29.77c4.39,0,7.72.34,9.98,1.03,2.26.68,4.09,2.07,5.48,4.15,1.39,2.08,2.09,5.44,2.09,10.07,0,3.13-.49,5.32-1.47,6.55-.98,1.24-2.92,2.18-5.81,2.85,3.22.73,5.41,1.94,6.55,3.63,1.15,1.69,1.72,4.28,1.72,7.77v4.97c0,3.62-.41,6.31-1.24,8.05-.83,1.75-2.15,2.94-3.96,3.58-1.81.64-5.52.96-11.12.96H2.73V29.77h13.91M16.67,50.86c.6-.02,1.06-.03,1.39-.03,1.37,0,2.24-.34,2.62-1.01.37-.67.56-2.6.56-5.78,0-1.68-.15-2.85-.46-3.53-.31-.67-.71-1.1-1.21-1.27-.5-.18-1.46-.28-2.9-.3v11.92M16.67,74.2c1.96-.07,3.22-.38,3.76-.93.54-.55.81-1.91.81-4.07v-5c0-2.3-.24-3.69-.73-4.17-.49-.49-1.77-.76-3.84-.83v15"/>
    <path d="M54.12,29.77v53.6h-13.94V29.77h13.94Z"/>
    <path d="M75.04,28.64c4.08,0,7.47.84,10.16,2.52,2.69,1.68,4.45,3.67,5.26,5.98.82,2.31,1.22,5.66,1.22,10.05v2.32h-13.94v-4.87c0-3.07-.13-4.99-.4-5.76-.26-.77-.89-1.16-1.89-1.16-.86,0-1.45.33-1.75.99-.31.66-.46,2.36-.46,5.1v25.72c0,2.41.15,3.99.46,4.75s.93,1.14,1.85,1.14c1.02,0,1.71-.43,2.07-1.29.36-.86.55-2.54.55-5.03v-6.36h-2.81v-8.14h16.32v28.77h-8.76l-1.29-3.84c-.95,1.66-2.15,2.9-3.59,3.73-1.45.83-3.15,1.24-5.12,1.24-2.34,0-4.53-.57-6.58-1.71-2.04-1.14-3.6-2.54-4.66-4.22s-1.72-3.44-1.99-5.28c-.27-1.84-.4-4.61-.4-8.29v-15.92c0-5.12.28-8.84.83-11.16.55-2.32,2.14-4.44,4.75-6.37,2.62-1.93,6-2.9,10.15-2.9"/>
  </g>
  <path d="M116.42,1.94l-3.28,61.82h-15.5l-3.28-61.82h22.07ZM112.91,67.52v16.01h-15.27v-16.01h15.27Z"/>
  <g>
    <path class="cls-1" d="M13.44,1.94h-.15c-.15.03-.37.07-.62.07-.37,0-.77-.03-1.05-.03-.53,0-.62-.03-1.12-.03-1.08,0-2.14.14-3.19.21-.09.03-.19.03-.31.03-.81.1-2.54.14-3.35.17-.28,0-.53,0-.81.17-.19.14-.25.21-.25.31s.06.24.06.48c0,.72-.06,1.44-.09,2.16-.06,1.51-.15,3.29-.15,5.01,0,.75.03,1.48.06,2.16,0,.41.06.86.06,1.27,0,.75-.06,1.54-.06,2.3,0,1.03.03,2.02.03,3.05,0,1.13-.03,2.47-.03,3.57-.03.34-.03.65-.03,1,0,.93.06,1.82.06,2.78,0,.21.06.31.19.45.12.14.25.17.4.17,1.02,0,2.85-.07,3.97-.17.28-.07.37-.17.37-.45v-.24c0-.21,0-.38-.03-.55-.03-.45-.03-1.2-.03-1.65,0-.82.06-1.82.06-2.61,0-1.06,0-.79.06-1.89l1.74.03c.37.03.68.07.99.07.4,0,.84-.03,1.46-.03.34,0,.68-.03,1.02-.14.19-.07.4-.07.46-.27.03-.14.06-.31.06-.48,0-.34-.06-.69-.06-1v-.03c0-.51.03-.55.03-1,0-2.06-.06-1.68-.06-2.16,0-.58-.43-.89-.9-.89h-.46c-.68,0-.65.07-1.36.07h-1.49c-.56,0-1.12,0-1.95.03v-.03c0-.72-.09-1.92-.09-2.85,0-.79.06-1.37.25-1.37.53,0,1.98-.17,2.94-.17.34,0,1.58-.1,1.92-.14.59-.07.71-.17,1.33-.17.22-.03.4-.24.4-.48,0-1.44.06-3.74.06-5.46,0-.69-.06-1.27-.34-1.27Z"/>
    <path class="cls-1" d="M48.67,2.65c0-.07-.03-.14-.06-.21-.15-.17-.34-.31-.53-.41-.15-.07-.4-.07-.68-.07-.43,0-.96.03-1.39.03h-.15c-.56-.03-.81-.1-1.33-.1h-.71c-.09,0-.22.03-.31.17-.03.03-.06.07-.06.14-.28.48-.31.34-.56.82-.28.58-.62,1.51-.93,2.06-.43.75-.9,2.09-1.39,2.78-.5.65-.71,1.13-1.18,1.85-.46.69-1.36,2.3-1.36,2.3,0-.41.31-4.02.31-5.97,0-.34,0-.65.03-1,.06-.75.06-1.51.12-2.27v-.21c0-.21-.03-.45-.19-.62-.06-.1-.15-.1-.25-.1s-.19,0-.31.03h-.37c-.5,0-.81-.03-1.61-.03h-.99c-.59-.03-1.02-.1-1.49-.1h-.28c-.15,0-.31.07-.34.24-.03.1-.03.21-.03.27.03.38.03.75.03,1.13,0,3.47-.09,7.07-.09,10.64v.55c0,.65,0,1.27-.03,1.92,0,3.33,0,6.38.06,9.71,0,.31.03.38.31.45.19.03.37.07.53.07.56,0,1.8-.03,2.6-.03h.19c.68,0,1.05.03,1.7.07.12,0,.19.03.28.03h.06c.22,0,.37-.03.53-.14.09-.07.15-.17.15-.31v-.51c0-2.68.03-5.32.03-8v-.07c0-.14.12-.21.22-.28l.37-.41c.46,1.27,1.08,2.37,1.67,3.78.19.41.28.72.43,1.06.4.96.74,1.75,1.08,2.57.22.51.46,1.06.68,1.68.06.14.09.24.12.38l.03.03c.09.24.28.27.53.34.25.03.5.07.74.07.19,0,.37,0,.5-.03.19-.03.34-.03.46-.03.37,0,.62.07,1.02.07.15,0,.37,0,.62-.07.31-.07.96-.1,1.15-.31.03,0,.03-.07.03-.1,0-.17-.03-.38-.06-.45-1.89-4.19-3.9-9.64-5.14-12.66,1.05-1.65,3.53-6.55,5.17-10.57.03-.1.06-.14.06-.21Z"/>
    <path class="cls-1" d="M62.54,25.92c0-.46-.03-.92-.03-1.38,0-.35-.09-.57-.4-.64-.15-.04-.34,0-.5-.04-1.12-.11-2.04-.28-3.16-.28h-.4c-.56,0-1.12-.03-1.67-.07-.19,0-.25-.07-.25-.28,0-.71.03-1.41.06-2.12,0-.21.06-.32.25-.35.25-.07.5-.14.77-.14,1.61,0,3.1-.04,4.62-.11.06,0,.25-.04.28-.07.09-.11.09-.14.09-.28v-.07c0-1.34.03-.81.03-2.01v-.53c0-.42-.12-1.2-.43-1.31-.12-.07-.53-.07-.68-.07-.22-.04-.37-.04-.59-.04-.37-.04-.65-.04-.93-.04h-1.8c-.5,0-1.49.07-1.55.07-.03-.14-.03-.25-.03-.39v-1.38s.03-.07.03-.11c.03-.14.12-.21.25-.25h.93c1.21,0,2.63.18,3.66.18.19,0,.4.04.62.04.34,0,.74-.07.74-.42,0-.39,0-.74-.03-1.1v-1.34c.06-.64.06-1.13.06-1.63,0-.57-.03-1.17-.03-1.87v-.35c0-.14,0-.57-.09-.64-.22-.25-.46-.28-.77-.28h-.31c-1.33.07-2.85.11-4.25.11-1.12,0-2.26,0-3.38-.04-.71,0-1.77-.18-2.57-.18-.25,0-.37.14-.4.42,0,1.41-.03,2.93-.03,4.31,0,2.09-.03,3.99-.03,5.97,0,1.31,0,2.65.06,4.06.03,1.2.03,2.4.03,3.6v1.73c0,.54.44.98.98.98h2.38c1.76,0,3.58,2.09,4.44,3.22.3.39.83.5,1.26.27.37-.2.83-.44,1.27-.64.42-.19.82-.32,1.1-.42.27-.09.45-.35.44-.64-.01-.44-.03-.88-.04-1.25v-2.23Z"/>
    <path class="cls-1" d="M77.34,2.14c-1.43,0-2.79-.03-4.28-.03-.46.03-.9.1-1.36.1h-.25c-.06,0-.15.07-.22.14-.03.1-.06.21-.09.34v.48c0,1,0,5.39.03,6.32,0,.75.03,1.48.03,2.23v.65c0,2.44-.06,5.15-.06,7.72v4.05c0,.24,0,.45.03.75v.34c0,.38-.12,1.09.43,1.42.38.23,2.05-.17,3.38-.17.88,0,2.32.32,2.57.11.25-.21.09-.8.05-1.1-.03-.18-.04-.38-.04-.56.03-1.33.06-2.41.06-3.33,0-1-.03-1.89-.03-2.81,0-1.2.03-2.51.09-4.29.06-1.82.06-7.25.06-9.17v-2.51c0-.24-.09-.45-.25-.62-.06-.07-.09-.07-.15-.07Z"/>
    <path class="cls-1" d="M91.99,6.08v-.69c.03-.41.06-.79.06-1.17s-.03-.75-.06-1.17c-.03-.34,0-.58-.19-.82-.06-.1-.25-.14-.4-.14-.46,0-.96,0-1.43-.07-.74-.03-1.77,0-2.51-.1-.74-.07-1.52-.03-2.26-.07-.37,0-.71,0-1.09-.03-.31,0-.87-.03-1.21-.03-.5,0-1.02.03-1.55.07h-1.18c-.15,0-.34,0-.34.27-.06.41-.09.62-.09,1.03v1.37c0,2.71-.06,2.47-.06,4.98,0,.21.09.34.28.48.06.03.19.07.28.07l.56.1c.06.03.16.03.22.03.34,0,.4,0,.77-.03.59,0,.81-.14,1.21-.14.12,0,.31.03.53.07.09.03.12.14.12.24v.27c0,.51-.06,1-.06,1.48,0,3.19-.03,7.59-.06,10.23-.03.03-.03.07-.03.07t.03.07c.03,1.48.06,2.54.06,3.81v1.1c0,.25.16.47.4.56,1.38.49,2.66,1.11,3.86,1.85.21.13.3.22.5.15.15-.05.08-.53.08-.87,0-1.51.03-2.99.03-4.43v-1.82c0-2.2.06-3.47.06-5.53,0-.17,0-.31-.03-.45,0-.38-.06-4.12-.06-4.47,0-.72.03-1.44.25-2.09.03-.17.16-.24.43-.24.09,0,.19,0,.31.03h.12c.15,0,.34-.03.56-.03.65-.03.5-.03,1.21-.03.4,0,.74-.07.81-.27.03,0,.03-.07.03-.07,0-2.27-.16-1.37-.16-3.57Z"/>
    <path class="cls-1" d="M29.98,26.06v-.07c-.09-.41-.12-.62-.19-1.03-.81-3.36-1.36-6.9-2.11-10.4-.12-.48-.19-.96-.28-1.44-.19-.89-.34-1.75-.5-2.64-.09-.38-.25-1.44-.34-1.85-.28-.96-.22-1.24-.43-2.23,0-.1,0-.17-.06-.27-.5-.34-1.39-.41-2.26-.41-.5,0-.99.03-1.39.03-.12,0-.28-.03-.46-.03-.25-.03-1.08-.07-1.92-.07-.74,0-1.49.03-1.7.1h-.46c-.15,0-.25.03-.28.17-.22,1.03-.43,1.82-.65,2.78-.15.93-.34,1.85-.46,2.71-.09.45-.12.89-.19,1.3-.19,1.2-.37,2.3-.5,3.23,0,.17-.03.34-.09.55-.15.51-.22,2.4-.37,2.95-.06.31-.12.58-.19.89-.06.38-.46,3.47-.59,3.81-.05.2-.2,1.45-.36,2.82-.04.35.23.65.58.65h1.82c.84,0,1.64.01,2.4.04.29,0,.52-.21.53-.5,0-.42.02-.85.02-1.29.03-.62.03-1.2.06-1.72.03-.69.03-2.44.25-2.47.22-.03.4-.07.59-.07.15,0,.34.03.5.07.12,0,1.52.07,1.61.1.22.03.31.17.34.41.19.96.28,1.54.4,2.51,0,.1.03.21.06.31.09.48.15,1,.22,1.51.02.14.05.45.11.82.06.39.37.7.76.76,1.35.19,2.55.45,3.6.76.6.18,1.17.4,1.73.65.39.17.81-.17.74-.59-.09-.57-.19-1.15-.19-1.17-.12-.65-.22-1.06-.34-1.68Z"/>
  </g>
  <g>
    <path class="cls-2" d="M3.4,87.86c0-.29.1-.65.39-.68.59-.1,1.66-.13,2.83-.13,1.6,0,3.39.07,4.56.16.75.06,1.53.16,2.22.33.85.13,1.63.49,2.25,1.11.52.52.78,1.14.91,1.86.1.62.23,1.24.23,1.89,0,.91-.13,1.79-.23,2.64-.2,1.04-.33,1.86-.95,2.54-.62.85-1.86,1.5-3.03,1.76-.72.16-1.43.29-2.15.29h-.39c-.33,0-.88,0-.88.33v.29c0,1.6-.03,3.32-.03,5.15,0,1.27-.03,2.44-.03,3.71,0,.16.03.59.03,1.01,0,.52-.03,1.07-.23,1.11-.29.07-.42.07-.65.07-.55,0-1.11-.1-1.92-.1-.26,0-.55.03-.85.03-.36,0-1.01-.1-1.4-.1-.29,0-.42.07-.75.07-.26-.03-.42-.2-.46-.46,0-1.04.03-2.05.06-3.1,0-.59.03-1.17.03-1.76v-2.8c0-1.69.07-3.49.07-5.31v-1.07c0-.42-.07-.85-.07-1.27,0-2.61.23-5.15.42-7.56ZM11.64,93.11c0-.42-.13-.72-.42-.88-.36-.23-.78-.46-1.34-.46-.13,0-.26,0-.39.03-.26.03-.29.07-.33.33,0,.07,0,.1-.03.16v.42c0,.65.06,1.3.13,1.96,0,.03,0,.06.03.1.03,0,.1.03.13.03h.13c1.04,0,2.09-.62,2.09-1.69Z"/>
    <path class="cls-2" d="M35.49,111.23h-1.79c-.29,0-.55-.03-.85-.03-.52,0-1.04.03-1.63.03-.95,0-1.14-1.56-1.79-2.48-.29-.52-.49-.78-.78-1.3-.42-.82-.62-1.27-1.11-2.12-.13-.23-.2-.39-.36-.62-.65-.95-.98-1.99-1.76-3.16-.06-.1-.13-.2-.23-.29-.36.49-.29,1.27-.36,1.99v1.4c0,1.11-.03,1.69-.03,2.8v2.87c0,.49-.36.75-.85.75h-.1c-.55-.03-1.01-.03-1.4-.03-1.34,0-2.09.13-4.01.13h-.07c-.26,0-.39-.13-.39-.36,0-1.37.07-3.03.07-4.63,0-2.38-.07-4.56-.07-6.97,0-.75-.03-1.27-.03-1.86,0-.98.03-2.05.03-3.1v-6.35c.03-.29.78-.46,1.04-.49.55-.07,1.07-.2,1.63-.2.36,0,2.67-.03,3.03-.03,2.22,0,4.46.16,6.65.16.75.03,1.92.16,2.87.62.88.42,1.43,1.14,1.96,1.92.68.98,1.27,1.95,1.27,3.58,0,.46-.03,1.79-.29,2.18-.1.33-.23.68-.42.98-.26.46-.65,1.24-1.17,1.53-.59.33-.95.49-1.56.75-.39.16-2.25.55-2.38.55.46.68.85,1.3,1.27,1.92.52.72,1.11,2.28,1.76,3.45.85,1.5,1.11,2.57,2.93,5.74.03.03.03.07.03.13,0,.49-.68.52-1.11.52ZM25.98,92.1h-.2c-.42,0-.2,0-.88.13-.03.26-.03.52-.03.78,0,.59.07,1.76.1,2.38.07,0,.13.03.2.03.13,0,.33.03.59.03,1.17,0,2.28-.07,2.8-.42.23-.2.49-.33.55-.65.07-.13.07-.85.07-.98,0-1.21-2.18-1.3-3.19-1.3Z"/>
    <path class="cls-2" d="M45.82,111.55c-.29.03-.59.03-.85.03-.39-.03-.78-.03-1.17-.03-4.69,0-6.13-3.39-6.52-7.82-.07-.49-.1-1.01-.1-1.5v-.95c0-3.19.39-6.16,1.04-8.7.2-.78.55-1.56.94-2.28,1.17-2.09,2.67-3.1,5.74-3.32.36-.03.72-.06,1.07-.06,2.67,0,5.18,1.14,6.03,2.87.65,1.43,1.04,2.7,1.21,4.63,0,.2.03.39.03.59.1,1.4.13,3,.13,4.56v.49c0,3.68-.03,7.1-1.76,9.12-1.24,1.5-3.23,2.38-5.8,2.38ZM46.11,92.62c-.16-.16-.36-.26-.62-.26h-.03c-.52.07-1.11.52-1.47,1.7-.13.46-.23.94-.26,1.43-.13.72-.07,1.53-.16,2.28-.03.78-.07.55-.07,1.08v.36c0,.36.03.65.03,1.01.03,1.11.03,1.14.16,2.18.07.81.65,3.36,1.66,3.36,1.6,0,1.76-2.18,1.82-3.65.1-1.14.16-1.04.16-2.41v-2.18c-.03-.91-.36-4.01-1.24-4.89Z"/>
    <path class="cls-2" d="M56.31,109.27c-.78-.78-1.08-2.05-1.27-3.13-.13-.78-.2-1.6-.23-2.41-.03-.78-.07-1.99-.1-2.77v-.91c0-.29.03-.62.03-.91.03-.2.1-.26.29-.29,1.92,0,3.88,0,5.74.23.23,0,.49.03.68.13.2.1.33.23.33.49v.29c0,.72-.07,1.5-.07,2.25,0,.39.03.78.07,1.17.07.39.07.72.39,1.11.2.23.72.62,1.04.62.59,0,1.21-.65,1.47-1.01.1-.1.13-.23.2-.33.23-.59.29-1.56.33-2.18v-.65c0-.55,0-1.11-.03-1.63-.07-.55-.03-.98-.07-1.63-.1-3.19-.13-5.8-.13-9.12v-.39c0-.13-.03-.33-.03-.49,0-.23.03-.42.23-.49h.33c.33,0,.59.03.81.03.46,0,.78-.03,1.34-.03h1.96c.23.03.33.13.36.33.03.13.03.26.03.36v.52c.06.78.06,1.53.1,2.31.16,2.93.07,5.47.13,8.99v.33c0,1.4-.1,2.83-.1,4.27-.33,3.29-.88,6.58-3.91,7.1-1.27.16-2.31.33-3.81.33-2.51,0-4.76-1.07-6.09-2.48Z"/>
    <path class="cls-2" d="M82.77,101.71c-.49.03-.91.07-1.4.07h-.39c-.78,0-1.4-.03-2.18-.03,0,0-.23,1.27-.23,2.28,0,.1.23.1.32.13.46.1.91.13,1.4.13.85,0,1.86-.1,2.64-.1h.07c.29,0,.55,0,.55.49,0,1.69.03,3.42.03,5.08v.72c0,.39-.55.42-.98.42h-.23c-2.54,0-4.92.1-7.59.1-.49,0-.98,0-1.47.03h-.85c-.1,0-.23,0-.33-.03-.2-.1-.33-.26-.33-.52v-.78c.03-.68.03-1.4.03-2.09,0-4.72-.13-9.81-.13-14.92v-2.05c0-.72.03-1.47.03-2.22v-.42c0-.26.03-.49.13-.75.07-.1.13-.16.26-.16h.07c.72,0,1.34.07,2.18.07.59,0,.94.03,1.53.03,1.11.03,1.66.13,2.77.13.36,0,.52,0,.88-.03s.59-.03.95-.06c.39-.03,1.04-.07,1.4-.07.39,0,.62.03,1.04.03.2,0,.36.1.49.29.03.07.03.1.03.16v.36c.03.26,0,.39.03.62s.07,2.35.07,2.57c0,.39-.1.55-.49.62-.78.1-1.99.1-2.9.1h-1.11c-.2,0-.36,0-.42.2-.13.39-.16.95-.16,1.43v1.79c0,.16,0,.29.03.39s.13.13.23.13c.59,0,1.21.03,1.86.03.59,0,1.17-.03,1.73-.1.1,0,.16-.03.26-.03h.07c.1,0,.23.03.29.1.2.13.2.36.2.55v.75c0,1.24-.07.52-.07,2.9v1.37c0,.1,0,.2-.06.26-.07,0-.2.03-.26.03Z"/>
    <path class="cls-2" d="M89.51,111.71c-.91-.1-1.66-.39-2.31-.88-1.27-.98-2.02-2.64-2.25-4.4-.13-.78-.2-1.6-.26-2.44-.06-.59-.1-1.21-.13-1.79-.03-1.01-.07-1.95-.1-2.9v-.72c0-1.3.07-2.57.23-3.78.16-1.43.49-2.77.98-3.91.46-1.11,1.11-2.05,1.96-2.74.68-.55,1.53-.94,2.51-1.14.72-.13,1.43-.2,2.15-.2.78,0,1.56.1,2.31.23.33.07.52.1.85.23.68.26,1.08.36,1.7.72.29.16.49.33.68.62.52.75.88,1.3,1.11,2.05.03.1.06.2.06.29.03.33.07.65.07,1.01v.88c0,.2,0,.36-.03.55,0,.23-.03.49-.03.72l-.06.95c-.07.55-.13,1.21-.2,1.76-.03.2-.03.39-.03.59s-.03.26-.26.29c-.13.07-.26.1-.39.1-1.47.13-2.57.2-4.01.2-.72,0-1.5-.1-1.5-.62,0-.26.03-.36.03-.59v-.32c.03-1.27.26-1.92.26-3.1v-.33c0-.13,0-.23-.07-.39-.1-.33-.33-.52-.65-.52-.06,0-.16,0-.23.03-.2.07-.36.16-.55.26-.26.2-.46.42-.65.72-.39.59-.78,1.34-.85,2.05-.13.81-.2,1.82-.2,2.64v.95c0,1.66.1,4.37,1.21,4.37,1.27,0,1.43-.85,1.47-1.01.07-.39.2-1.53.2-1.89v-.26c.03-.23.2-.36.42-.36,1.86,0,3.88.03,5.54.16.29.07.42.23.49.52.03.2.07.39.07.59,0,.1-.03.16-.03.26-.03.42-.03.88-.03,1.3-.03.33-.06.65-.06.98-.03.42-.1.85-.1,1.27,0,.52-.07,1.07-.16,1.56,0,.1-.03.2-.03.29,0,1.4-1.04,2.87-1.86,3.55-.1.07-.16.16-.26.23-.59.52-1.3.78-2.02,1.01-1.01.29-1.56.39-2.57.49h-.16l-.91-.03c-.46-.03-.88-.07-1.3-.1Z"/>
    <path class="cls-2" d="M104.01,95.52c-.49,0-1.11.03-1.76.03-.42,0-.88-.03-1.24-.07-.07,0-.13-.03-.23-.03-.2-.1-.33-.23-.33-.46v-2.15c.07-1.37.1-2.97.13-4.27v-.16c0-.33.03-.78.36-.78,3.62-.2,8.57-.2,11.44-.26h.16c.2,0,.39.03.52.26.07.1.07.23.07.39-.03.88-.1,1.47-.1,2.15,0,.16.03.33.03.49v1.5c0,.62.03.95.07,1.56v.72c0,.23,0,.42.03.65v.23c0,.13-.16.16-.29.2-.26.03-.39.06-.55.06-.23,0-.46-.06-1.01-.06h-.75c-.33,0-.72.06-1.11.1-.1.2-.16.72-.16.98,0,.52-.03.95-.03,1.3,0,3.65,0,8.08-.07,12.38,0,.13,0,.29-.03.46,0,.23-.13.39-.33.39-.65,0-1.73.07-2.54.07-.26,0-.49,0-.65-.03h-.1c-.13,0-.23.03-.36.03-.1,0-.16-.03-.29-.1-.1-.06-.16-.46-.16-.59v-7.17c0-2.31,0-4.4-.1-6.68,0-.16-.07-.65-.07-.81,0-.1,0-.2-.03-.29-.16-.03-.36-.03-.52-.03Z"/>
  </g>
</svg>