<?xml version="1.0" encoding="UTF-8"?>
<svg id="Calque_1" data-name="Calque 1" xmlns="http://www.w3.org/2000/svg" viewBox="0 0 149.18 75.15">
  <defs>
    <style>
      .cls-1 {
        fill: #fff;
      }

      .cls-2 {
        opacity: .75;
      }
    </style>
  </defs>
  <g class="cls-2">
    <path class="cls-1" d="M17.84,34.44c-1.01-.97-2.2-1.19-3.35-1.19h-5.47v13.22h3.43v-4.38h2.16c1.03,0,2.26-.14,3.29-1.15,1.03-1.01,1.17-2.24,1.17-3.29,0-1.11-.2-2.22-1.23-3.21ZM15.04,38.9c-.42.38-1.09.42-1.45.42h-1.15v-3.29h1.17c.44,0,1.07.06,1.47.48.36.36.4.83.4,1.19,0,.32-.02.85-.44,1.21Z"/>
    <path class="cls-1" d="M23.23,33.25l-5.07,13.22h3.63l.89-2.22h4.8l.81,2.22h3.67l-4.97-13.22h-3.74ZM23.63,41.64l1.45-4.28,1.49,4.28h-2.93Z"/>
    <path class="cls-1" d="M38.95,33.25h-5.47v13.22h3.43v-4.38h2.16c1.03,0,2.26-.14,3.29-1.15s1.17-2.24,1.17-3.29c0-1.11-.2-2.22-1.23-3.21-1.01-.97-2.2-1.19-3.35-1.19ZM39.51,38.9c-.41.38-1.09.42-1.45.42h-1.15v-3.29h1.17c.44,0,1.07.06,1.47.48.36.36.4.83.4,1.19,0,.32-.02.85-.44,1.21Z"/>
    <polygon class="cls-1" points="45.36 46.47 52.87 46.47 52.87 43.56 48.79 43.56 48.79 41.28 52.65 41.28 52.65 38.37 48.79 38.37 48.79 36.17 52.87 36.17 52.87 33.25 45.36 33.25 45.36 46.47"/>
    <path class="cls-1" d="M63.71,40.15c.65-.63,1.05-1.63,1.05-2.75,0-1.05-.38-2.2-1.13-2.97-.97-1.01-2.24-1.17-3.23-1.17h-5.35v13.22h3.43v-5.07l3.29,5.07h4.26l-4.14-5.41c.61-.12,1.31-.42,1.82-.91ZM60.8,38.64c-.42.4-1.15.53-1.67.53h-.65v-3.27h.65c.75,0,1.33.2,1.64.52.3.28.46.71.46,1.11,0,.42-.18.85-.44,1.11Z"/>
    <rect class="cls-1" x="88.9" y="33.25" width="3.43" height="13.22"/>
    <polygon class="cls-1" points="104.86 41.34 98.54 33.25 95.11 33.25 95.11 46.47 98.54 46.47 98.54 38.39 104.86 46.47 108.28 46.47 108.28 33.25 104.86 33.25 104.86 41.34"/>
    <path class="cls-1" d="M117.41,41.66h2.81c-.12.73-.5,1.21-.81,1.47-.61.52-1.31.61-1.9.61-1.01,0-1.78-.34-2.42-1.01-.61-.65-1.05-1.64-1.05-2.85,0-1.03.38-2.26,1.15-3.03.61-.61,1.45-.91,2.26-.91.65,0,1.27.18,1.84.65.34.28.71.71.95,1.33l3.27-1.35c-.48-1.03-1.33-2.08-2.36-2.71-1.01-.61-2.34-.89-3.57-.89-2.34,0-4.04.85-5.13,1.94-1.15,1.13-1.98,2.85-1.98,4.95s.91,3.79,1.9,4.78c1.07,1.09,2.69,1.96,5.07,1.96,1.68,0,3.27-.38,4.66-1.66,1.59-1.47,2.12-3.33,2.12-5.94h-6.82v2.68Z"/>
    <path class="cls-1" d="M134.72,39.73c-.69-.75-1.57-1.05-2.4-1.31l-1.05-.32c-.81-.24-1.05-.48-1.15-.59-.14-.18-.18-.36-.18-.59,0-.3.14-.52.34-.71.34-.32.79-.4,1.13-.4.45,0,1.23.08,2.26.89l1.37-2.68c-1.25-.65-2.77-1.07-4.08-1.07-1.6,0-2.71.58-3.39,1.25-.57.57-1.21,1.57-1.21,3.19,0,.67.08,1.61.75,2.34.53.59,1.35.89,1.9,1.07l.89.28c.85.26,1.37.4,1.71.69.28.24.38.53.38.79,0,.34-.14.63-.34.83-.22.24-.63.46-1.33.46-1.19,0-2.3-.65-3.03-1.35l-1.46,2.77c.95.65,1.78.97,2,1.05.97.36,1.76.44,2.6.44,1.41,0,2.77-.22,3.9-1.35.95-.95,1.25-2.12,1.25-3.33,0-.91-.18-1.64-.85-2.36Z"/>
    <path class="cls-1" d="M107.62,30.9l-3.15-3.28h-20.02c-.31,0-.58.22-.63.53l-2.4,13.65-2.6-8.54h-2.73l-2.79,8.54-3.01-13.54c-.07-.29-.32-.5-.62-.5h-20.93l-3.21,3.28h21.94l3.9,15.44h3.49l2.54-7.65,2.4,7.65h3.51l3.46-15.57h20.88Z"/>
  </g>
</svg>