<?xml version="1.0" encoding="UTF-8"?>
<svg xmlns="http://www.w3.org/2000/svg" viewBox="0 0 149.18 75.15">
  <defs>
    <style>
      .cls-1 {
        fill: #9ebed0;
      }

      .cls-2 {
        fill: #f6f6f6;
      }

      .cls-3 {
        fill: #9ebed0;
      }

      .cls-4 {
        fill: #e94e1b;
      }

      .cls-5 {
        fill: #cde5f3;
      }

      .cls-6 {
        fill: #eaf6fe;
      }

      .cls-7 {
        fill: #eaf6fe;
      }
    </style>
  </defs>
  <g id="Calque_1" data-name="Calque 1">
    <polygon class="cls-1" points="97.3 17.53 79.68 44.23 75.71 35.51 97.3 17.53"/>
    <polygon class="cls-5" points="65.23 31.42 97.3 17.53 83.88 31.42 79.74 44.27 77.62 44.27 74.49 33.37 71.22 44.27 69.1 44.27 65.23 31.42"/>
    <path class="cls-3" d="M74.57,31.42l22.73-13.89-32.07,13.88s5,11.41,5.1,11.35,4.24-11.33,4.24-11.33Z"/>
    <polygon class="cls-7" points="65.23 31.42 49.42 31.41 97.3 17.53 65.23 31.42"/>
    <polygon class="cls-6" points="83.88 31.42 103.87 31.42 97.3 17.53 83.88 31.42"/>
    <g>
      <path class="cls-2" d="M26.81,34.6c-.82-.79-1.79-.97-2.73-.97h-4.46v10.77h2.79v-3.57h1.76c.84,0,1.84-.11,2.68-.94.84-.82.95-1.82.95-2.68,0-.9-.16-1.81-1-2.61ZM24.54,38.23c-.34.31-.89.34-1.18.34h-.94v-2.68h.95c.35,0,.87.05,1.19.39.29.29.32.68.32.97,0,.26-.02.69-.35.98Z"/>
      <path class="cls-2" d="M31.21,33.63l-4.13,10.77h2.95l.73-1.81h3.91l.66,1.81h2.99l-4.05-10.77h-3.05ZM31.53,40.46l1.18-3.49,1.21,3.49h-2.39Z"/>
      <path class="cls-2" d="M44.01,33.63h-4.46v10.77h2.79v-3.57h1.76c.84,0,1.84-.11,2.68-.94s.95-1.82.95-2.68c0-.9-.16-1.81-1-2.61-.82-.79-1.79-.97-2.73-.97ZM44.46,38.23c-.34.31-.89.34-1.18.34h-.94v-2.68h.95c.35,0,.87.05,1.19.39.29.29.32.68.32.97,0,.26-.02.69-.36.98Z"/>
      <polygon class="cls-2" points="49.23 44.4 55.35 44.4 55.35 42.03 52.02 42.03 52.02 40.17 55.17 40.17 55.17 37.8 52.02 37.8 52.02 36.01 55.35 36.01 55.35 33.63 49.23 33.63 49.23 44.4"/>
      <path class="cls-2" d="M64.18,39.25c.53-.52.86-1.32.86-2.24,0-.85-.31-1.79-.92-2.42-.79-.82-1.82-.95-2.63-.95h-4.36v10.77h2.79v-4.13l2.68,4.13h3.47l-3.37-4.41c.5-.1,1.07-.34,1.49-.74ZM61.81,38.02c-.34.32-.94.44-1.36.44h-.53v-2.66h.53c.61,0,1.08.16,1.34.42.24.23.37.58.37.9,0,.34-.15.69-.35.9Z"/>
      <rect class="cls-2" x="84.7" y="33.63" width="2.79" height="10.77"/>
      <polygon class="cls-2" points="97.7 40.22 92.55 33.63 89.76 33.63 89.76 44.4 92.55 44.4 92.55 37.82 97.7 44.4 100.49 44.4 100.49 33.63 97.7 33.63 97.7 40.22"/>
      <path class="cls-2" d="M107.92,40.48h2.29c-.1.6-.4.99-.66,1.19-.5.42-1.07.5-1.55.5-.82,0-1.45-.27-1.97-.82-.5-.53-.86-1.34-.86-2.32,0-.84.31-1.84.94-2.47.5-.5,1.18-.74,1.84-.74.53,0,1.03.15,1.5.53.27.23.58.58.78,1.08l2.66-1.1c-.39-.84-1.08-1.69-1.92-2.21-.82-.5-1.91-.73-2.91-.73-1.9,0-3.29.69-4.18,1.58-.94.92-1.61,2.33-1.61,4.04s.74,3.08,1.55,3.89c.87.89,2.19,1.6,4.13,1.6,1.37,0,2.66-.31,3.79-1.36,1.29-1.19,1.73-2.71,1.73-4.84h-5.55v2.18Z"/>
      <path class="cls-2" d="M122.02,38.91c-.57-.61-1.27-.86-1.95-1.07l-.86-.26c-.66-.19-.86-.39-.94-.48-.11-.15-.15-.29-.15-.48,0-.24.11-.42.27-.58.27-.26.65-.32.92-.32.37,0,1,.07,1.84.73l1.11-2.18c-1.02-.53-2.26-.87-3.33-.87-1.31,0-2.21.47-2.76,1.02-.47.47-.98,1.27-.98,2.6,0,.55.06,1.31.61,1.91.43.48,1.1.73,1.55.87l.73.23c.7.21,1.11.32,1.39.57.23.19.31.44.31.65,0,.27-.11.52-.27.68-.18.19-.52.37-1.08.37-.97,0-1.87-.53-2.47-1.1l-1.19,2.26c.77.53,1.45.79,1.63.86.79.29,1.44.35,2.11.35,1.15,0,2.26-.18,3.18-1.1.78-.77,1.02-1.73,1.02-2.71,0-.74-.15-1.34-.69-1.92Z"/>
    </g>
    <path class="cls-4" d="M70.35,42.04c.29-1.3,4.22-10.62,4.22-10.62h0s3.82,9.32,4.11,10.62h.08c.21-1.3,5.12-10.62,5.12-10.62l.28.54-4.42,12.31h-2.12s-2.81-8.84-3.13-10.35h0c-.32,1.54-3.26,10.35-3.26,10.35h-2.12l-4.13-12.31.25-.54,5.12,10.62Z"/>
  </g>
  <g id="Calque_3" data-name="Calque 3">
    <polygon class="cls-4" points="103.83 31.42 83.67 31.96 83.88 31.42 103.83 31.42 103.83 31.42"/>
    <polygon class="cls-4" points="49.36 31.43 65.44 31.97 65.23 31.43 49.36 31.43 49.36 31.43"/>
  </g>
</svg>