<?xml version="1.0" encoding="UTF-8"?>
<svg id="Calque_1" data-name="Calque 1" xmlns="http://www.w3.org/2000/svg" viewBox="0 0 135.68 72.83">
  <defs>
    <style>
      .cls-1 {
        fill: #009fe3;
      }

      .cls-2 {
        fill: #f9b233;
      }
    </style>
  </defs>
  <g>
    <path class="cls-2" d="M3.66,11.75v-2.06h10.29v2.06h4.11v2.06h2.06v4.11h2.06v6.17h-2.06v2.06h-2.06v2.06h-6.17v4.11h-2.06v2.06h-4.11v-2.06h-2.06v-6.17H1.61v-14.4h2.06ZM11.89,15.87h-4.11v4.11h2.06v2.06h4.11v-4.11h-2.06v-2.06Z"/>
    <path class="cls-2" d="M26.29,11.75v-2.06h4.11v2.06h2.06v12.34h2.06v8.23h-2.06v2.06h-6.17v-2.06h-2.06V11.75h2.06Z"/>
    <path class="cls-2" d="M40.69,11.75v-2.06h4.11v2.06h2.06v2.06h4.11v-2.06h2.06v-2.06h4.11v2.06h2.06v4.11h-2.06v2.06h-2.06v2.06h2.06v2.06h2.06v4.11h2.06v6.17h-2.06v2.06h-4.11v-2.06h-2.06v-4.11h-2.06v-2.06h-4.11v2.06h-2.06v4.11h-2.06v2.06h-4.11v-2.06h-2.06v-6.17h2.06v-4.11h2.06v-2.06h2.06v-2.06h-2.06v-2.06h-2.06v-4.11h2.06Z"/>
    <path class="cls-2" d="M69.49,11.75v-2.06h12.34v2.06h2.06v4.11h-2.06v2.06h-8.23v2.06h6.17v4.11h-2.06v2.06h-6.17v2.06h10.29v4.11h-2.06v2.06h-14.4v-2.06h-2.06v-10.29h2.06v-6.17h2.06v-4.11h2.06Z"/>
    <path class="cls-2" d="M90.07,11.75v-2.06h4.11v2.06h2.06v6.17h-2.06v4.11h-2.06v4.11h4.11v2.06h2.06v4.11h-2.06v2.06h-10.29v-2.06h-2.06v-10.29h2.06v-6.17h2.06v-4.11h2.06Z"/>
  </g>
  <g>
    <path class="cls-1" d="M33.56,31.76h.16c0,.06.05.16.15.27v.16s-.06.14-.06.14h.07s.29-.24.29-.24h.14s0,.15,0,.15h.07s0-.16,0-.16l.16.08h.07s0-.09,0-.09h-.14s0-.07,0-.07c.11,0,.2-.03.28-.08.1.04.17.07.23.06,0-.05.02-.07.07-.07.02.09.07.14.15.14h.07c.05-.17.08-.27.08-.29h.07s.1.04.22.13c0-.14.05-.22.15-.22.11,0,.2.02.29.06.09-.05.17-.08.23-.08v.07s-.06.15-.06.15c.05,0,.12.02.22.06h.23c.25.11.38.21.39.28l-.38-.06h-.16s0,.15,0,.15c.25,0,.37.03.38.13h.16s.09-.06.21-.16h.07c.11,0,.16.05.17.13l.14-.08s.07.02.07.07l.16-.08.15.07-.07.16v.07s.14-.08.14-.08l.52.19c0,.17.16.26.46.28.09.2.17.3.24.29,0-.15.04-.23.13-.24.27.25.6.49.99.71v.14c.06,0,.09-.03.09-.07l.14.07h.07s0-.15,0-.15h.07c0,.19.37.45,1.08.78l.14-.08h.07c0,.19.13.28.38.27v.09s-.06.14-.06.14h.07s.16-.08.16-.08c0,.11.34.37.99.78,0,.08.26.25.77.49v.07s.14-.08.14-.08c.05.08.08.18.08.3l.14-.09h.09s0,.09,0,.09l-.08.15c.64.52,1,.78,1.08.78l-.07.14c.55.23.84.47.85.72.24,0,.36.07.36.2-.09.03-.14.08-.14.17.2,0,.31.09.31.29l.14-.09c0,.15.07.33.18.53l.14-.09c.09,0,.15.14.16.44l.16-.08c.1.02.15.07.15.15v.21c.32.44.53.66.62.65l-.07.15s.13.17.39.43v.23c.07,0,.18.14.33.43-.05,0-.07.03-.07.07.1.04.17.06.22.06l.02.45h.14c0,.1-.02.2-.06.3l.25.36v.07s-.06.15-.06.15c.07,0,.15.07.22.22l-.07.14c0,.13.08.3.23.51,0,.06-.02.14-.06.23.06.38.15.65.26.81l-.15.29h.23s0,.15,0,.15l-.07.14c.09,0,.14.05.15.14h-.14s.02.54.02.54c0,.05-.02.07-.07.07l.08.14-.06.38.08.14c-.04.1-.06.17-.06.23.05,0,.07.02.07.07-.11.02-.16.07-.16.15l.09.16c-.14.4-.2.72-.19.97l.08.14c-.06.5-.18.76-.35.76v.23c.01.11.05.2.11.28l-.08.16c.06.09.09.16.1.21h-.09s-.15-.06-.15-.06c0,.15-.01.23-.06.23l.08.14v.07s-.14,0-.14,0v.23s.15,0,.15,0v.14c-.21,0-.45.34-.71.99-.33.41-.49.68-.48.84.05,0,.07.02.07.07l-.14.08v-.07c-.15,0-.31.21-.5.63-.07,0-.24.18-.51.54-.08,0-.3.21-.64.61h-.07s.15.23.15.23h-.07s-.24-.15-.24-.15c0,.06-.17.19-.5.39l-.14-.06c0,.11-.05.16-.15.17v.07s.16,0,.16,0v.07c-.2,0-.3.08-.29.23l-.15-.07h-.23c0,.13-.11.26-.36.4h-.21c-.96.75-1.51,1.12-1.67,1.12h-.23c0,.1-.04.15-.14.16l-.15-.07c-.07.15-.33.38-.79.69h-.07s-.16-.06-.16-.06c0,.09-.19.25-.57.47h-.16s0-.14,0-.14c-.09.01-.14.06-.14.15.05,0,.07.02.07.07-.31.01-.58.12-.81.33l-.38-.13c0,.14-.04.22-.13.22-.1-.04-.17-.06-.22-.06v.07s.08.16.08.16l-.16.08s-.07-.02-.07-.07l-.14.08c-.1-.04-.18-.06-.23-.06-.06.19-.13.29-.2.29l-.24-.13.09.14v.07s-.09,0-.09,0c-.09,0-.14-.04-.15-.14l-.14.08-.38-.13s-.02.12-.06.22l-.16-.07-.14.08-.45-.2h-.23s0-.06,0-.06l-.37.09h-.14c0-.2-.08-.29-.22-.29h-.23s0-.06,0-.06h-.37c-.36-.27-.61-.41-.76-.4l-.02-.52h-.14s-.14.08-.14.08c0-.08-.06-.18-.17-.3l.15-.29c-.05-.11-.08-.18-.08-.23.02,0,.09-.05.21-.15h.07s-.13.22-.13.22v.16c.1,0,.15.04.15.14h.07s0-.07,0-.07c-.05-.09-.08-.19-.08-.3v-.07c.2,0,.3-.09.29-.24,0-.06.12-.16.36-.3v.07c.1-.05.17-.08.21-.08l-.08-.16s.07-.03.07-.07l.16.07h.14c0-.17.18-.3.57-.4,0,.06.03.09.09.09,0-.15.04-.23.13-.24l.14.07v-.14s.08,0,.08,0c.05,0,.07.02.07.07.3-.26.72-.4,1.25-.42l-.09-.14c.06-.09.08-.19.08-.31-.06,0-.09-.02-.09-.07.13,0,.2-.13.22-.38h-.14s.06-.37.06-.37c-.15,0-.23-.04-.24-.13.12,0,.23-.23.35-.69l-.09-.37.07-.15v-.21s.06,0,.06,0v-.09c-.15,0-.22-.04-.22-.14.09-.17.13-.3.13-.38-.05,0-.07-.02-.08-.07h.07s-.16-.37-.16-.37c.09-.2.13-.35.13-.45l-.09-.51.07-.16c-.05-.08-.08-.17-.08-.28h.07c-.1-.25-.16-.42-.16-.51.05,0,.07-.03.07-.09-.05,0-.07-.02-.07-.07.09,0,.14-.05.14-.15v-.14s-.15,0-.15,0v-.37s.05-.16.05-.16c-.1-.04-.17-.07-.23-.06v-.14s.16,0,.16,0l-.02-.6s.02-.07.07-.07l-.08-.14c.04-.09.07-.19.06-.31l-.14.08v-.07s.13-.22.13-.22l-.09-.53h.07s-.08-.14-.08-.14c0-.05.02-.07.07-.07l-.16-.37c.04-.08.06-.19.06-.31v-.14s-.17,0-.17,0c.06-.1.08-.17.08-.23,0-.06-.09-.3-.26-.72l.06-.16-.23-.35.2-.31v-.07s-.21.15-.21.15h-.07s0-.14,0-.14l.07-.16s-.07-.02-.07-.07h.07c0-.05-.03-.07-.07-.07l.06-.38c-.11-.11-.17-.18-.17-.21l.16-.09s-.22-.47-.66-1.31l.08-.15c-.19-.54-.32-.81-.41-.8.09-.17.13-.3.13-.38l-.32-.51c.06-.1.08-.17.08-.23,0-.14-.09-.21-.24-.2v-.14s.14,0,.14,0c-.07-.31-.17-.46-.3-.45l.13-.29s-.07-.02-.07-.07l-.16.08c-.09,0-.14-.05-.15-.16l.14-.08s.03.07.09.07v-.14c-.16,0-.24-.04-.24-.13l.06-.38c-.19,0-.28-.04-.29-.13v-.09s.06-.15.06-.15c-.11,0-.16-.04-.17-.14v-.09s.02-.07.08-.08c0-.05-.03-.07-.09-.07l.08-.38v-.14s-.09,0-.09,0v.14s-.14,0-.14,0l.07-.15-.23-.29c.09,0,.14-.05.14-.15v-.07c0-.06-.03-.09-.08-.09l.07-.15-.08-.14c.07,0,.14-.08.2-.24-.09,0-.14-.04-.15-.14v-.07s.14,0,.14,0v-.07c-.19,0-.29-.11-.3-.36h.07c-.05-.1-.08-.17-.08-.23l-.16.08h-.07c0-.19-.16-.28-.46-.27l.15-.24h-.16s-.14.08-.14.08c-.17-.43-.38-.65-.63-.64v-.07s.16,0,.16,0v-.09c0-.09-.09-.14-.24-.13l.15-.22-.24-.15c0,.11-.04.16-.14.17h-.07s.07-.16.07-.16c-.05-.09-.08-.16-.08-.21.06-.01.15-.14.27-.38-.05,0-.07-.02-.07-.07h.14c0,.14.06.21.17.2h.14s-.08-.14-.08-.14l.14-.08.16.07.07-.16c-.11-.15-.17-.27-.17-.35ZM33.22,32.06h.14s0,.23,0,.23h-.14s0-.23,0-.23ZM33.31,32.66h.14s0-.17,0-.17c-.09.03-.14.08-.14.17ZM33.93,31.66h.09s0,.16,0,.16h-.09s0-.16,0-.16ZM34.45,57.02c.11,0,.16.05.17.14v.07c-.1,0-.16-.04-.16-.14v-.07ZM34.62,35.73h.14s0,.14,0,.14h-.14s0-.14,0-.14ZM34.92,36.1v.14s.08,0,.08,0v-.14s-.08,0-.08,0ZM35.55,56.31l.08.16h-.21c0-.1.05-.15.14-.16ZM35.76,56.3h.16s0,.07,0,.07h-.16s0-.07,0-.07ZM35.88,31.82v.07s.15,0,.15,0v-.07s-.15,0-.15,0ZM36.26,32.02v.09s.22,0,.22,0v-.09s-.22,0-.22,0ZM37.31,32.42v.09s.16,0,.16,0v-.09s-.16,0-.16,0ZM37.82,53.76h.16s0,.15,0,.15c-.11,0-.16-.05-.17-.15ZM39.13,37.04c-.02.31-.07.47-.12.47.05.09.08.16.08.21l.14-.08h.07c0,.13-.06.3-.19.52.05.16.16.26.31.29l-.08.15v.14s.18.23.18.23l-.06.31c.05.09.08.16.08.21-.05,0-.07.03-.07.07.14,0,.22.05.22.15l-.07.14c.05.09.08.17.08.23v.21c.06,0,.08.02.08.07,0,.02-.02.13-.06.31l.43,1.55-.07.14c.1.2.16.34.16.44-.09,0-.14.08-.13.24l.15.28s-.02.07-.07.07c0,.09.06.3.17.6h-.07c.15.71.29,1.13.42,1.25-.09.05-.17.08-.23.08l.09.14v.16s-.02.07-.08.07l.17.3c-.11.02-.16.07-.16.15,0,.09.08.14.24.13v.07s-.13.24-.13.24v.07s.22,0,.22,0v.23s-.13,0-.13,0c.02.1.07.14.15.14l-.06.38.09.37h-.07s.08.14.08.14c-.04.1-.07.18-.06.23.09,0,.14.05.15.14l-.07.14c.05.09.08.19.08.3h-.14s.15.21.15.21c-.05,0-.07.03-.07.09l.14.06c-.03.2-.07.31-.13.31l.08.14v.07s-.04.1-.13.24c.09,0,.14.05.15.14v.07s-.04.1-.13.24l.15.21c0,.09-.04.14-.14.15l.16.37-.13.31.08.14-.13.31.15.07-.07.16v.21c.1,0,.15.02.15.06l-.06.16v.21s-.06,0-.06,0l.08.16-.07.14.08.14c-.08.3-.15.45-.2.45l.16.37c-.09.01-.14.07-.14.17.09,0,.15.05.15.14-.15.03-.22.23-.21.6v.16c.15,0,.45-.14.9-.41.1.04.17.06.22.06,0-.07.07-.15.22-.24.05,0,.07.03.08.09.61-.45,1.19-.78,1.74-.98l-.08-.14v-.07s.07,0,.07,0l.15.06c0-.06.29-.29.87-.69l1.45-1.32-.17-.23c.49-.29.73-.6.71-.92.08,0,.16-.11.22-.31-.05-.09-.08-.16-.08-.21.07,0,.16-.11.27-.31v-.07s-.08-.14-.08-.14h.07s-.08-.16-.08-.16c0-.05.02-.07.07-.07l-.08-.14v-.16c.09,0,.16-.08.22-.22l-.09-.16c.06-.1.08-.17.08-.22-.07,0-.15-.07-.24-.22.2,0,.3-.18.28-.53h.07s-.09-.37-.09-.37v-.07s.02-.07.07-.07l-.08-.14.07-.16-.15-.06.06-.3c-.06-.35-.12-.57-.19-.65.06-.1.08-.18.08-.23l-.25-.37v-.14s.06-.14.06-.14c-.06,0-.19-.24-.4-.73l.09-.14c-.26-.26-.39-.44-.39-.52h.07s-.55-.87-.55-.87h.21s0-.15,0-.15c-.12,0-.3-.16-.54-.5,0,.05-.02.07-.07.07l-.08-.14v-.09s.07,0,.07,0l.15.08v-.16c-.16,0-.29-.08-.39-.27-.12-.1-.25-.15-.38-.15v-.07s.16,0,.16,0v-.14c-.18,0-.34-.11-.46-.36-.67-.46-1.01-.75-1.01-.85l-.14.08c-.33-.46-.58-.7-.78-.72,0-.11-.18-.23-.53-.35h-.14s.08.16.08.16h-.14c0-.27-.22-.41-.62-.42,0-.18-.18-.3-.53-.35,0-.05-.03-.07-.08-.07h-.37s0-.07,0-.07c0-.05.02-.07.07-.07-.05-.09-.08-.16-.08-.21h-.14s.08.15.08.15h-.07s-.77-.49-.77-.49c0,.09-.04.14-.14.15h-.09s-.08-.3-.08-.3h-.07ZM39.14,37.34h.14s0,.07,0,.07h-.14s0-.07,0-.07ZM39.87,33h.07s0,.14,0,.14h-.07s0-.14,0-.14ZM40.18,33.36h.07c.09,0,.14.05.15.13l-.14.08h-.07s0-.21,0-.21ZM42.31,34.55h.14s0,.07,0,.07h-.14s0-.07,0-.07ZM47.32,47.23h.16s0,.23,0,.23c-.11,0-.16-.05-.17-.15v-.07ZM50.34,50.16h.14s0,.14,0,.14c-.09,0-.14-.04-.15-.14Z"/>
    <path class="cls-1" d="M55.74,31.31l.17.14c.12-.04.25-.05.39-.03l.24.26.69-.06c0,.1.13.22.42.37l.19-.04c.11.08.2.13.27.15l.21-.06c.1.09.18.14.26.15l.14-.17c.17.1.25.18.24.24h.48c.47.09.7.24.69.44l.21-.06.09.03c.12.04.17.11.15.21l.21-.04.38.07c.06,0,.08.04.07.1l.19-.04.2.03-.05.2c.06,0,.1-.01.12-.08l.45.18.27.06c-.04.19,0,.3.14.32l.21-.04c.29.14.43.27.41.38l.21-.06h.09c-.02.28.04.42.2.45.02-.06.06-.09.12-.08,0,.13.04.21.15.23.06,0,.09-.02.1-.08.35.2.52.37.5.5l.19-.06c.65.82,1.04,1.45,1.18,1.9-.06,0-.09.02-.1.08.37.1.52.33.45.68l.77,1.91c-.03.19.05.31.23.35v.09s-.15.17-.15.17c.09.02.2.17.3.45l-.24.24.17.14c0-.06.04-.09.1-.08l.06.21-.21.04c-.05.83,0,1.27.14,1.3l-.2.45-.06.29.06.21-.18-.05-.05.18v.5s-.09-.01-.09-.01l.04.19c0,.07-.04.1-.1.07,0,.06.01.1.08.12-.52,1.15-1.38,2.18-2.59,3.09-.2-.05-.57.16-1.1.65-.44-.09-.7.05-.77.42l-.2-.03c-.06,0-.09-.05-.08-.12l-2.37.61c-.03.13-.09.25-.17.34,1.12.75,1.95,1.35,2.47,1.78l.27.06c-.05.25.17.46.67.62.36.41.54.65.54.69l.21-.04c.15.29.31.45.48.48l-.06-.21v-.09c.15.03.17.23.09.6l.47.09c.26.38.46.58.58.6l.65.63c.04-.12.12-.17.23-.15h.09s-.03.21-.03.21l-.2-.05.06.21-.14.17.38.07.21-.06c.08.24.11.38.1.42h.09s.05-.17.05-.17l.18.03c0,.07,0,.17.05.3h-.5s-.01.09-.01.09c.37.08.55.18.53.3v.09s-.21-.03-.21-.03v.09s.17.05.17.05c.02-.07.06-.1.12-.08v.09c-.11.11-.16.2-.17.26.22-.08.39-.11.5-.09l-.14.17c.07.02.1.06.08.12-.06,0-.09.02-.1.08.08.02.25.15.5.39l-.03.2-.24.24c.12.15.23.23.33.26-.03.13-.11.18-.23.15h-.09s-.17-.15-.17-.15l-.05.2c.18.03.31.18.39.47l-.03.18c-.08,0-.23-.14-.43-.38-.2.03-.31.08-.32.14.04.13.06.23.05.3-.19.09-.33.13-.42.11l-.03.2c.17.03.29.21.36.56h-.09c-.24-.12-.34-.27-.3-.47h-.09s-.09.45-.09.45l-.33.12c.02-.06,0-.09-.06-.1l.12-.17.05-.2-.74.24h-.09s-.17-.15-.17-.15l-.05.2-.18-.05v-.09s.15-.16.15-.16c-.16-.03-.3-.13-.44-.29-.27.14-.5.19-.71.15l-.09-.03.04-.27-.32.12c-.1-.44-.14-.7-.12-.8h-.09s-.33.11-.33.11l-.04-.21c.18-.09.31-.13.41-.1-.26-.46-.49-1.07-.71-1.81-.11-.02-.32-.22-.65-.62h-.11s.03-.1.03-.1l.14-.18-.18-.12c0,.06-.04.09-.1.08.02-.1-.04-.31-.17-.64l-.21.06-.2-.92c-.12-.02-.58-.5-1.37-1.45l-.91-.87c-.08.11-.13.2-.15.27l-.18-.05.14-.17c-.04-.14-.06-.24-.05-.3h-.09s-.32.11-.32.11l-.09-.02s-.02-.25-.08-.6l-.21.06.06.21-.05.18-.18-.05c0-.06.04-.08.1-.08-.03-.13-.04-.22-.03-.28l-.09-.03-.05.2-.09-.03-.24-.24-.05.2-.27-.06c-.13-.03-.18-.11-.15-.23l-.21.06-.71-.83c-.13-.03-.21.05-.24.24l-.2-.05.05-.18-.29-.06.1.41c-.08.1-.13.22-.16.36l.06.21-.09-.03.05.71c-.08.09-.14.2-.17.34,0,.13.04.21.15.23l-.2.45-.03.18.19-.04v.09c-.1.11-.16.2-.17.26l.17.14-.18.45-.03.09.29.06-.12.56-.24.24c.1.02.17.14.23.35-.14-.03-.32.16-.51.57l.06.21c-.38.9-.74,1.38-1.07,1.45l-.03.09-.17-.14h-.09c-.13-.05-.21.03-.24.23h-.11c-.26-.08-.43-.24-.48-.51-.27-.25-.38-.5-.33-.75l.09.03-.06-.21.03-.09c0-.06.04-.08.1-.08l-.06-.21.05-.18.2-.45h-.11c.17-.51.29-.75.35-.74l-.06-.19c.22-.45.34-.69.35-.73-.13-.02-.18-.09-.15-.23,0-.06.06-.14.15-.26.08-1.01.13-1.59.15-1.74l.11.03c-.09-.23-.12-.41-.09-.51h.09s-.2-.51-.2-.51l.11.03-.06-.21.14-.17c-.4-.73-.65-1.11-.75-1.13l.3-.53c-.1-.02-.16-.17-.19-.44l.09.03.16.12c.04-.19.12-.4.23-.63-.01-.59-.08-.9-.19-.92.01-1.78-.09-2.88-.32-3.29.11-.5.07-.78-.12-.82v-.09c.02-.06.06-.09.14-.08-.23-.79-.34-1.2-.33-1.23l-.11-.03-.03.2c-.13-.03-.18-.11-.15-.23.12.02.19-.03.23-.15.04-.2-.01-.44-.15-.71.06,0,.1-.02.12-.08-.25-.05-.37-.14-.35-.27.09-.11.14-.2.15-.26l-.47-.59c.13.03.21-.02.23-.15l-.34-.17.03-.2.24-.24c-.24-.36-.4-.69-.48-.98h-.09c.04-.13.12-.18.23-.17l.09.02-.03.2.18.03.05-.18c-.19-.04-.27-.12-.24-.24l.12-.17c-.18-.04-.26-.13-.24-.26l.05-.18.12-.17c-.06-.02-.08-.06-.06-.12.06,0,.09-.02.1-.08h-.09c-.14.03-.24.04-.3.01v-.09s.15-.17.15-.17c-.13-.03-.18-.11-.15-.23h.09c.07-.3-.27-.53-1.02-.68h-.09s-.5-.03-.5-.03l-.04-.19-.21.04c-.1-.08-.22-.13-.36-.16l.06-.29s0-.31-.03-.78v-.09s.26-.24.26-.24l.06-.29c.31-.06.49-.15.54-.27l-.04-.21.36.08c.02-.1.17-.2.45-.3l-.03.2.09.02c.38-.25.73-.35,1.04-.29l-.06-.19v-.11c.21.04.45.16.74.35l.12-.16.36.17c.3.06.69.04,1.17-.05l.18.12c.22-.08.39-.11.5-.09.31.13.5.2.54.21l.42-.1ZM51.01,34.36h.11s-.03.1-.03.1c-.08.11-.13.2-.15.27l-.18-.05.14-.17c-.07,0-.1-.05-.08-.12l.19-.04ZM51.4,37.27l.27.06-.03.18h-.09c-.13-.05-.18-.12-.15-.24ZM51.45,35.61l-.03.11.2.03v-.09s-.17-.05-.17-.05ZM51.67,30.68l-.05.18-.18-.03c.04-.12.12-.17.23-.15ZM52.16,39.77h.09s-.03.21-.03.21l-.09-.03.03-.18ZM53.22,30.21h.09s-.03.21-.03.21l-.09-.03.03-.18ZM54.83,53.98l.2.05.03-.18c-.13,0-.21.04-.23.13ZM55.18,34.52c0-.06-.02-.1-.08-.12-.03.13-.11.18-.23.15v.09s.01.15.1.33l-.12.17.47.09-.36.32c-.03.13.05.21.24.24-.04.22-.11.37-.2.45.02.89.07,1.45.15,1.69l-.14.18c.12.04.17.12.15.23l-.18-.05-.03.09.29.06v.09s-.15.18-.15.18c.16.03.19.33.1.89-.06,0-.09.02-.1.08.24.08.34.23.3.45l-.14.17c.04.14.05.24.03.3l-.12.18c.06.98.15,1.49.27,1.52l-.27.33c.12.04.17.12.15.23v.09s-.21-.03-.21-.03l-.03.18.18.05-.12.17-.05.18c.23.48.35,1.32.36,2.52l.44.29.03-.18c.13.02.18.13.14.32.53-.16.87-.22,1.01-.18v.09c.98-.06,1.48-.12,1.49-.18l.53-.2c.11.09.19.14.26.15l3.12-.92,1.04-.77c0,.06.02.1.08.12.21-.2.51-.76.92-1.67-.12-.03-.17-.11-.15-.23.02-.06.06-.09.12-.08-.04-.14-.04-.5.01-1.07.07,0,.11-.02.12-.08-.13-.02-.24-.46-.32-1.33-.16-.04-.32-.34-.5-.89-.14.04-.24.05-.3.03l-.14-.32c.06.01.1-.02.12-.07-.53-.16-1.19-.75-1.99-1.76-.44-.3-.69-.52-.76-.65l-.19.06-.11-.03c.05-.22-.73-.67-2.35-1.35l-.29-.06c-.13.04-.23.06-.3.05-.17-.17-.31-.27-.42-.29l-.21.06c-.24-.11-.35-.2-.33-.27-.58,0-1.03-.01-1.36-.07ZM55.37,40.81l.18.05v.09s-.19-.05-.19-.05v-.09ZM63.3,58.55c.11.09.19.14.25.15-.02.12-.09.17-.23.15l-.04-.21v-.09ZM64.13,58.82l.18.03.05-.18c-.13,0-.21.04-.23.15ZM64.76,59.04l.06.19-.03.11-.09-.03c-.12-.02-.17-.09-.15-.23l.21-.04ZM64.82,35.21l-.03.09.2.05v-.11s-.17-.03-.17-.03ZM66.45,54.59l.18.03-.03.2-.2-.05.05-.18ZM66.69,54.83l.2.05-.03.09-.18-.05v-.09ZM67.32,57.02l-.05.18h.11s.03-.17.03-.17l-.09-.02Z"/>
    <path class="cls-1" d="M64.84,33.16c.1.04.18.06.23.06v.07c0,.09-.04.15-.15.15-.06,0-.13-.07-.22-.21l.14-.08ZM64.87,32.05h.09s0,.14,0,.14h-.09s0-.14,0-.14ZM68.61,29.63c-.09.16-.13.31-.12.45l-.16-.08c.06.09.09.17.1.23h.07c.09-.23.13-.4.12-.52h.21s-.13.21-.13.21c.1.1.25.15.45.14v-.09s.14,0,.14,0v.09c0,.14-.08.22-.27.22v.07c.1,0,.15.02.15.07l.14-.08c.19.2.34.29.46.29v.07s-.21,0-.21,0v.14c.2,0,.29.09.3.29h.07s.14-.1.14-.1v.3s.17-.08.17-.08v.14s-.06.14-.06.14h.07s.21-.15.21-.15v.07c-.04.09-.06.19-.06.31l.15.06.23-.15c.21.53.46.78.76.77,0-.05.02-.07.07-.07.35.13.53.22.53.27-.04.1-.07.18-.06.23l.14-.08s.07.02.07.07l.14-.08h.07s.16.06.16.06v-.23s.13,0,.13,0c0,.13.16.27.46.43,0-.07.07-.15.21-.22.09,0,.14.05.15.14-.05,0-.07.03-.07.07.31.04.66.15,1.05.33l.14-.07.14.06v-.16s.08,0,.08,0l.09.37h.14c0-.19.04-.29.13-.29,0,.22.31.41.91.55,0-.06.02-.09.07-.09,0,.07.23.16.67.28v.07s.37-.23.37-.23h.07s-.15.22-.15.22l.38.06.52-.02c.16.09.33.16.53.21,0-.11.05-.16.14-.17l.08.16.16-.09h.36s0,.15,0,.15l.14-.08c.11,0,.16.07.17.21h.07c0-.14.04-.22.13-.22h.07c.07,0,.15.06.24.2l.14-.08h.21s.07.01.07.06l.37-.16c.01.09.07.14.15.14h.14c.12,0,.22-.04.3-.09.26.13.43.2.53.19,0-.06.14-.16.43-.3.09,0,.14.05.15.14l.14-.08h.07s-.07.14-.07.14c.18,0,.33.04.45.13v-.21c.18.06.28.18.29.36l.23-.17v.07s.14-.08.14-.08h.07s0,.16,0,.16h-.14s0,.22,0,.22c.11,0,.2.02.29.06l-.07.15v.07c.1,0,.15.03.15.09l.16-.1h.07c-.04.09-.06.17-.06.23.05.09.08.16.08.21-.05,0-.07.03-.07.07.24,0,.36.08.36.22,0,.05-.02.07-.07.07l.08.14c-.04.1-.06.17-.06.21h.07s-.06.16-.06.16v.21s.08,0,.08,0l.16-.08.08.14c-.07,0-.15.08-.22.24v.21s.24,0,.24,0v.14c-.11,0-.23.13-.35.39l.08.14c-.19,0-.28.06-.28.15.14,0,.22.05.22.15-.08,0-.15.05-.21.15l.08.14v.07s-.07,0-.07,0l-.31-.2c0,.14-.09.22-.28.22l.08.14-.14.09h-.09c0-.2-.06-.3-.15-.29h-.07c0,.11-.02.21-.06.31.1,0,.15.06.15.14v.07c-.3-.11-.45-.2-.45-.29.11,0,.16-.05.15-.15h-.37c-.1.02-.14.1-.13.25h-.14s.07-.16.07-.16c0-.09-.06-.14-.17-.14,0,.07-.07.14-.21.22h-.07s0-.07,0-.07l.07-.14c-.25,0-.38-.08-.38-.27l-.14.08s-.07-.02-.07-.07l-.14.08c-.09,0-.14-.05-.15-.16l-.16.1h-.07s-.15-.08-.15-.08v.16s-.14,0-.14,0v-.16c-.05,0-.08.03-.07.09-.35-.07-.52-.14-.52-.21l-.16.08h-.07s0-.07,0-.07l.07-.15h-.07c-.08.05-.18.08-.28.09-.05-.09-.08-.16-.08-.21h-.07s0,.22,0,.22h.14s0,.14,0,.14h-.14c-.11,0-.16-.08-.17-.27-.11.1-.18.15-.21.15v-.07s.06-.14.06-.14c-.11,0-.2-.02-.29-.06v.21s-.08,0-.08,0c-.04,0-.11-.07-.22-.21-.09.05-.16.08-.21.08l.07-.16-.14-.07c0,.11-.05.16-.16.17l-.08-.16h.14s0-.15,0-.15c-.1.1-.32.18-.65.24,0-.09-.05-.14-.15-.14,0,.09-.04.14-.14.15,0-.09-.06-.14-.17-.14l-.14.08c-.05-.09-.08-.16-.08-.21l-.14.08c0-.18-.23-.29-.67-.35l-.16.09-.22-.15c0,.11-.02.16-.07.16-.17-.1-.32-.15-.45-.14-.04.1-.07.18-.06.23h-.21s.06-.37.06-.37h-.23c0,.15-.04.23-.13.23-.1-.04-.17-.07-.22-.06l.07-.15v-.14c-.17-.04-.27-.06-.31-.06l-.28.15c0-.07-.11-.17-.32-.29h-.36c0,.26-.06.39-.22.4l-.08-.14c.07,0,.15-.11.22-.31-.08,0-.19-.04-.31-.13h-.07s-.37.09-.37.09c-.05-.09-.08-.16-.08-.21h-.07s-.06.36-.06.36v.09c.09,0,.19.16.33.49l-.08.16.1.35c-.06,0-.09.03-.09.07l.16.08.14-.09.08.16c-.09.05-.16.08-.21.08.1.15.15.27.16.35-.09.03-.14.08-.14.17v.07s.07,0,.07,0l.14-.08v.14s-.06.29-.06.29c.07.25.15.37.23.37l-.06.38v.14c.01.18.12.42.34.72v.07s-.15.24-.15.24c.07,0,.18.11.32.34-.09.03-.14.08-.14.17,0,.13.06.27.16.42l-.07.16c.07.34.15.51.23.51l-.07.15c.16.46.24.7.24.72h-.07c.11.34.21.51.32.51,0-.1.05-.15.14-.15l.38.06c.11,0,.3-.09.58-.25.09.06.18.08.29.08.17-.17.9-.4,2.18-.67v.07c.28-.17.52-.25.72-.26v.07c.35-.2.64-.31.88-.32v.07s.09-.05.21-.15h.07c0,.18.16.32.46.43h.07s.14-.1.14-.1v.09s-.02.07-.07.07c.22.56.34.93.34,1.09v.07c-.08.24-.18.36-.29.37l.08.16-.99.63-.08-.16c-.09.04-.39.1-.88.19v-.09c-.25.12-.42.18-.51.18v-.07c-.25.15-.44.23-.58.24h-.14s-.15-.06-.15-.06c0,.09-.05.14-.16.15-.25-.04-.39-.06-.43-.06-.39.15-.58.25-.58.31l-.16-.06c-.15,0-.37.12-.65.33-.05,0-.07-.02-.07-.07-.29.11-.49.16-.58.16.01.09.06.14.15.14-.09.17-.13.32-.13.45v.28c.11,0,.15.02.16.08l-.07.15c.05.08.08.18.08.28-.09.03-.14.08-.14.17h.14s0,.14,0,.14l-.07.14h.14s0,.07,0,.07c0,.09-.09.15-.28.15l.39.36c-.11.02-.16.07-.15.15.11.16.17.28.17.37-.11,0-.16.08-.15.22,0,.06.03.14.08.23l-.05.45.08.14-.07.14c.07.46.13.73.19.8l-.15.31h.16s.14-.08.14-.08v.14c0,.09-.07.15-.22.15l.17.22c-.11,0-.16.03-.16.08l.09.14c-.04.2-.09.31-.15.31l.08.14v.07s-.06.38-.06.38l.16.07-.08.15v.07c.05,0,.24-.1.58-.31.21.09.36.13.45.13.09-.13.13-.21.13-.24l.16.08c.62-.2.93-.36.93-.48l.38.06h.37c0-.06.02-.13.06-.23l.15.07h.07s0-.16,0-.16l.22.15.08-.16s.07.03.07.09c.4-.07.79-.21,1.16-.42.1.04.17.06.22.06.09-.05.17-.08.23-.08,0,.05.03.07.07.07l.07-.15c.1.04.17.07.22.06.09-.05.17-.08.23-.08v.07s.28-.15.28-.15l.15.06c.09-.05.17-.08.23-.08,0,.05.03.07.07.07.04-.1.06-.17.06-.23l1.03-.04s.07.03.07.09c.19-.07.36-.15.51-.25l.22.13h.21s.23-.16.23-.16c.12.08.32.15.6.21l.14-.1c.39.07.6.18.6.35l.14-.08c.05.09.08.16.08.21h.09s0-.22,0-.22l.37.36c-.09.12-.13.22-.13.29,0,.05.03.24.09.58-.12,0-.23.25-.35.74l-.36-.06h-.07c0,.05-.21.25-.64.62h-.16s0-.14,0-.14c-.21.15-.43.23-.65.24l-.45.02s-.02.07-.07.07l-.15-.07-.28.17c-.1-.06-.2-.08-.31-.08l-.13.24-.15-.07c-.13,0-.4.06-.81.17v-.07s-.72.31-.72.31v-.07c-.15,0-.21.09-.21.24-.44-.04-.72-.08-.83-.13l-.27.31c-.17-.09-.3-.13-.38-.13l-.07.15-.15-.07h-.23s-.21.16-.21.16l-.15-.07c0,.11-.22.23-.66.38,0,.06-.02.09-.07.09,0-.11-.05-.16-.15-.15v.23s-.36.01-.36.01l-.15-.07-.13.22-.14-.06-.73.54-.14-.07c-.29.19-.43.31-.43.37l-.29-.13c0,.06-.19.24-.57.54-.25.34-.39.52-.43.53-.23-.15-.38-.22-.45-.22l-.28.17-.31-.15h-.14s0,.08,0,.08h.23s0,.15,0,.15l-.38-.06h-.14s-.23.16-.23.16c-.1,0-.27-.04-.52-.12,0,.09-.04.14-.14.15l-.52.02c0-.2-.15-.3-.44-.29-.09.05-.19.08-.3.08h-.07c-.07,0-.4-.2-.99-.62-.19,0-.29-.13-.3-.42.05,0,.07-.03.07-.09-.09,0-.14-.04-.15-.14.04-.1.07-.17.06-.22l.15.06.42-.75.15.07.14-.08-.08-.16c.04-.14.09-.22.13-.22l-.08-.14v-.07s.16,0,.16,0v.21s.08,0,.08,0l.14-.08-.08-.14v-.07c0-.11.05-.16.13-.17v.23c.26-.03.38-.11.37-.25h.07s.14.06.14.06c0-.19.06-.29.2-.29.06,0,.09-.05.08-.14h.07s.15.06.15.06c0-.15.04-.23.13-.24,0,.06.03.09.08.09,0-.06.02-.09.07-.09l-.08-.14v-.07s.07,0,.07,0l.16.07v-.07s-.08-.14-.08-.14c0-.25.06-.38.2-.38l-.08-.14s.02-.07.07-.07l-.15-.3c.04-.24.08-.36.13-.36l-.08-.16.07-.14c-.09,0-.14-.04-.15-.14l.13-.31c-.09,0-.14-.04-.15-.14l.07-.15-.09-.37h.07s-.08-.14-.08-.14l.13-.38c-.14-.04-.22-.18-.23-.42.06,0,.13-.08.21-.24-.07,0-.18-.19-.33-.58h-.07s.15-.29.15-.29l-.09-.14c.06-.1.08-.2.08-.31l-.16.08s-.03-.07-.08-.07l.07-.14v-.16s-.08-.14-.08-.14c.09-.05.17-.08.23-.08l-.17-.21s.07-.03.07-.07c-.1,0-.15-.07-.15-.23h-.07c-.11.1-.18.15-.21.15l-.16-.07c0,.08-.11.17-.35.25-.14,0-.47-.26-.99-.78h-.07s-.01-.35-.01-.35c0-.11-.08-.16-.22-.15,0-.05.02-.07.07-.07l-.08-.14c.09-.19.13-.37.12-.52-.05-.09-.08-.16-.08-.21l.22.13c0-.14.07-.22.22-.22l-.09-.16c.02-.1.07-.15.16-.15v.07s.72-.38.72-.38c.1.04.17.07.22.06,0-.07.09-.15.29-.24,0,.06.03.09.08.09l-.09-.37.07-.15h-.07s-.14.08-.14.08l-.09-.14c.11,0,.16-.06.15-.17v-.07s-.16,0-.16,0l.08-.15-.1-.37c.06,0,.09-.03.09-.07-.07,0-.18-.11-.32-.34l.13-.24c-.1-.04-.17-.07-.22-.06v-.07s.02-.07.07-.07c-.05-.09-.08-.17-.08-.23l-.02-.5c-.1,0-.14-.05-.15-.15,0-.09.05-.14.14-.15-.06-.27-.22-.51-.47-.71h.07c-.07-.19-.19-.41-.38-.65.09,0,.14-.06.14-.17l-.15-.21s.07-.03.07-.07c-.12,0-.23-.19-.33-.58h-.14s0-.07,0-.07c0-.04.07-.11.21-.24-.05-.09-.08-.16-.08-.21h-.07s0,.22,0,.22c-.09,0-.14-.04-.15-.14h.07c-.05-.1-.08-.17-.08-.21.04-.1.06-.17.06-.23-.08,0-.22-.22-.4-.64.11,0,.16-.05.15-.15l-.16-.06.07-.15v-.09s-.22,0-.22,0v-.21s.01-.07.06-.07c-.05-.09-.08-.16-.08-.21l-.21.15c-.05-.09-.08-.17-.08-.23l.07-.14-.25-.44h.16s-.31-.28-.31-.28v-.21s-.22,0-.22,0v-.16s.15-.05.34-.16v-.07c-.14,0-.22-.04-.22-.13,0-.05.02-.07.07-.07-.05-.09-.08-.17-.08-.23l-.14.08v-.07s-.16.08-.16.08c-.09,0-.15-.09-.15-.28h-.07s-.14.08-.14.08c0-.07-.08-.14-.24-.2h-.07s.17.21.17.21l-.16.08c-.09,0-.15-.07-.15-.21l-.14.08c-.09-.05-.19-.06-.31-.06,0,.09-.04.14-.14.15l-.08-.14c.07,0,.16-.11.27-.31h-.07c-.11.1-.18.15-.21.15h-.14s0-.07,0-.07l.07-.14c-.09,0-.14-.04-.15-.14h.07c-.05-.1-.08-.17-.08-.23.04-.1.06-.17.06-.22l-.16.08c0-.09-.12-.14-.36-.13v-.21s.21,0,.21,0v-.16s-.22,0-.22,0v-.14s.14,0,.14,0v-.14s-.08-.14-.08-.14l-.14.08h-.07s0-.07,0-.07c0-.09.16-.27.48-.54.03.09.08.14.17.14v-.37s-.17.08-.17.08l-.08-.14v-.07c.12,0,.28-.14.5-.39l.08.16-.07.14h.07c.06-.25.13-.38.22-.39l-.08-.14v-.07c.09.04.17.07.21.06v.21s-.13,0-.13,0v.16c.08,0,.17-.11.28-.31-.05,0-.07-.02-.07-.07h.14s0-.08,0-.08l-.15-.21v-.09s.11-.03.21-.08c0,.07.08.15.24.22.22-.1.34-.21.35-.32-.09,0-.14-.04-.15-.14h.07s.24.13.24.13c.04-.39.26-.6.64-.61v-.07s-.32-.36-.32-.36v-.07s.16.07.16.07h.07c0-.15.04-.22.13-.22v.21s.08,0,.08,0v-.21s.06.02.07.07c.2-.1.34-.16.44-.16ZM65.32,34.01h.07s0,.14,0,.14c0,.06-.02.09-.07.09l.08.14s-.02.07-.07.07l.08.14v.07c-.13,0-.23-.12-.29-.35.06-.2.13-.31.2-.31ZM65.19,32.48c.09,0,.14.05.15.14h-.14s0-.14,0-.14ZM65.36,33.07v.07s.14,0,.14,0v-.07s-.14,0-.14,0ZM65.37,33.42l.24.13c0-.15.01-.27.06-.36h-.07c-.07,0-.15.08-.22.23ZM65.53,31.44h.07c.1,0,.15.05.15.13v.21s-.13,0-.13,0l-.08-.35ZM65.85,34.37v.07s.21,0,.21,0v-.07s-.21,0-.21,0ZM65.89,31.57c.1,0,.15.05.15.14v.07s-.14,0-.14,0v-.21ZM66.38,34.56v.07s.15,0,.15,0v-.07s-.15,0-.15,0ZM68.98,56.6v.14s.15,0,.15,0v-.14s-.15,0-.15,0ZM69.52,29.95h.07s0,.16,0,.16h-.07s0-.16,0-.16ZM69.69,40.62v.14s.08,0,.08,0v-.14s-.08,0-.08,0ZM70.44,31.18h.14c0,.09-.04.14-.14.14v-.14ZM70.48,30.29h.07s0,.14,0,.14h-.07s0-.14,0-.14ZM70.56,30.73h.07s0,.14,0,.14h-.07s0-.14,0-.14ZM70.68,31.9v.14s.09,0,.09,0v-.14s-.09,0-.09,0ZM70.94,47.99h.14s0,.15,0,.15c-.09,0-.14-.05-.15-.15ZM71.59,53.35l.08.28h-.07c-.11,0-.16-.04-.17-.13.02-.1.07-.15.16-.15ZM71.59,32.53v.07s.15,0,.15,0v-.07s-.15,0-.15,0ZM72.19,36.48v.14c.1,0,.15-.05.14-.15h-.14ZM72.79,36.81h.14s0,.08,0,.08h-.14s0-.08,0-.08ZM74.48,32.93h.14s0,.07,0,.07h-.14s0-.07,0-.07ZM74.85,36.97v.14s.08,0,.08,0v-.14s-.08,0-.08,0ZM75.47,57.09h.14s0,.06,0,.06h-.14s0-.06,0-.06ZM76.63,37.41h.07s0,.14,0,.14h-.07s0-.14,0-.14ZM77.39,33.93h.07s0,.14,0,.14h-.07s0-.14,0-.14ZM77.74,33.91h.16s0,.14,0,.14h-.16s0-.14,0-.14ZM78.06,37.88h.07s0,.14,0,.14h-.07s0-.14,0-.14ZM80.77,43.73h.14c0,.09-.04.14-.14.14v-.14ZM80.84,38.06v.14s.09,0,.09,0v-.14s-.09,0-.09,0ZM81.82,38.54h.14s0,.14,0,.14c-.09,0-.14-.04-.15-.14ZM83.01,38.7h.14s0,.16,0,.16h-.14s0-.16,0-.16ZM84.81,37.76h.14s0,.07,0,.07h-.14s0-.07,0-.07ZM84.82,36.21h.07s0,.14,0,.14h-.07s0-.14,0-.14ZM84.83,38.35h.14s.1.28.1.28c-.07,0-.15-.07-.24-.2v-.07Z"/>
    <path class="cls-1" d="M92.8,29.63h.14s0,.14,0,.14l.14-.06h.07s.2.15.2.15c.1,0,.15-.06.15-.2l.36.02c0,.15.02.27.07.35l.14-.06h.07s0,.07,0,.07c-.06.09-.08.16-.08.22.08,0,.21.14.39.43v-.14s.16.01.16.01l-.02.36.27.44c.09-.04.17-.06.23-.06l-.24.28c.15.15.26.23.35.24v.14s-.14-.01-.14-.01l.06.16-.08.13v.07s.07,0,.07,0v-.13c.11,0,.15.09.13.28l.16-.06h.07s-.01.07-.01.07l-.07.14c.06,0,.13.07.21.22l-.02.07-.13-.08-.09.15c0,.14.06.22.21.22l-.09.34c.1.02.15.07.15.15h-.14s-.01.06-.01.06c.09,0,.14.04.15.08l-.09.48c.04.09.05.17.04.23-.04-.01-.06,0-.07.06.1.02.14.07.13.16v.07s-.08.15-.08.15c.14.03.21.22.2.58h-.07c.05.33.16.5.32.51v.07s-.23.35-.23.35l.26.65c-.09,0-.14.05-.14.13.1.02.14.07.13.16v.07s-.08.13-.08.13c.14,0,.21.1.21.29l-.08.15.06.14c-.04.1-.07.17-.08.22l.15.08s.02-.07.07-.07c0,.05.03.07.07.07l-.08.15v.14s.07.14.07.14l-.14.08c.13.22.19.36.19.42l-.08.15c.04.08.06.18.06.28-.05.14-.1.22-.15.22.04.08.05.2.05.36l.23-.13h.07s-.15.22-.15.22c.06,0,.13.07.2.22l-.23.4c.18.04.27.12.28.24l-.24.35c.06.24.14.36.26.36l-.09.36h.21s-.07.14-.07.14c.08.46.18.8.31,1.02l-.17.35c.19,0,.28.08.27.22h-.07s.03.07.07.07l-.09.36v.07s.15,0,.15,0v.22s-.15,0-.15,0c.21.43.39.65.54.66v.07s-.08.15-.08.15c.07.24.18.36.33.36l-.22.28s.07.04.08.09l.14-.08h.14s-.01.16-.01.16c-.09,0-.14.01-.14.06.04.17.05.34.04.52l-.05-.02v.07s.13.01.13.01c0-.05.02-.07.07-.07v.07s-.09.36-.09.36c.07,0,.21.28.4.8.12,0,.18.11.19.3l-.14.06s-.03-.07-.07-.07v.07c0,.09.06.15.2.15l-.02.5c.19,0,.29.03.29.08l.14-.06s.07.02.07.07c.51-.05.87-.18,1.07-.38,0,.09.03.14.08.14.09-.04.17-.06.21-.06,0,.11.18.24.55.39l.14-.06c.07,0,.29.36.66,1.1v.36c-.02.28-.12.42-.31.4l.06.16v.05s-.07,0-.07,0l-.15-.06c-.22.37-.49.54-.8.53,0,.09-.16.14-.44.12v-.07c-.05,0-.07,0-.07.06l-.14-.06c-.41.27-.67.39-.79.39l.05.35c-.09.01-.15.06-.16.15v.05c.15.02.21.17.2.44l-.36.28v.07s.12.21.12.21v.07s-.14,0-.14,0l.05.35v.14s-.14-.08-.14-.08v.14s.13.01.13.01v.21s-.08-.01-.08-.01l-.13-.07-.02.07.08.14-.23.42c.04.09.06.16.06.21h-.07s-.15-.08-.15-.08c0,.09-.13.14-.37.14l.14.35c-.11.22-.21.33-.31.35l-.06-.14h.14s0-.15,0-.15h-.14s0,.15,0,.15l-.36-.02v-.07s.08-.15.08-.15l-.15-.07v.14c-.25-.2-.41-.31-.49-.32,0,.1-.06.14-.15.15v-.07c.01-.07.09-.14.24-.2l.13.07v-.21c-.08.05-.15.07-.2.06-.19-.08-.28-.15-.28-.22l.08-.14c-.13,0-.25-.13-.35-.36l-.14.06h-.07c.01-.34-.09-.61-.32-.81h-.07s-.01.15-.01.15h-.07c-.09,0-.14-.06-.13-.15v-.07s.14.08.14.08v-.07c0-.32-.1-.59-.32-.81h.07s-.26-.37-.26-.37c.09,0,.14-.04.14-.13-.1,0-.14-.06-.13-.16l-.14.08-.36-.09c-.17,0-.48.05-.94.16l-.13-.07-.44.12c-.09-.06-.18-.09-.29-.09h-.14c-.06,0-.13.06-.22.21l-.34-.09h-.07c-.13.09-.2.14-.23.14l-.06-.16-.14.08s-.07-.04-.07-.09l-.14.08-.15-.08c0,.14-.13.21-.37.19l-.02.36.07.37-.15-.08c0,.21-.03.35-.09.41.04.11.06.18.06.23,0,.05-.02.07-.07.06.02.33.06.55.11.65-.06.09-.08.16-.08.22.05,0,.07.02.06.07h-.14s.01-.16.01-.16h-.07c-.07,0-.15.06-.22.21.14,0,.21.06.2.15v.21s-.35-.09-.35-.09h-.07c0,.16-.26.52-.76,1.1-.05,0-.07-.02-.07-.07-.39.05-.65.13-.79.24l-.14-.07s-.02.07-.07.06c0-.1-.04-.14-.13-.14,0,.09-.06.14-.16.13s-.14-.06-.13-.15l-.16.08c-.18-.09-.27-.26-.25-.53v-.21s-.13,0-.13,0v-.14s.14,0,.14,0c-.09-.15-.13-.27-.12-.35h.07c-.18-.29-.26-.48-.25-.58l.13.08h.07c0-.1-.08-.15-.27-.15v-.07c.2-.21.3-.35.3-.42l-.05-.43c.09,0,.18-.17.25-.49v-.07s-.07,0-.07,0v.22s-.15-.01-.15-.01c0-.19-.04-.29-.14-.3h-.07s.08.14.08.14v.07s-.14,0-.14,0c-.11,0-.2-.04-.29-.1l-.14.08c-.1-.06-.17-.08-.22-.08,0,.1-.06.14-.16.13l-.07-.02c-.36-.18-.54-.44-.53-.8-.06,0-.19-.15-.41-.45h-.07s.24-.63.24-.63c-.09-.06-.15-.08-.2-.08v-.29s.15.01.15.01l-.06-.16.14-.06s.03.07.07.07c0-.19.08-.28.22-.28.34-.24.51-.44.53-.61h.14s0,.21,0,.21c.27-.05.46-.11.58-.18l.13.08c.2-.09.35-.13.44-.12l.06.14c.08,0,.28-.03.58-.11v.14s.06,0,.06,0c.07,0,.15-.06.22-.2l-.06-.14c.1-.12.16-.28.16-.49l-.07-.02c0-.1.11-.14.3-.12v-.07s-.14-.23-.14-.23v-.21c.02-.09.09-.14.24-.13v-.14s-.15,0-.15,0v-.14c.09,0,.22-.22.4-.64l-.06-.14c.13-.65.29-1.14.48-1.48l-.06-.14v-.14s.08-.14.08-.14c-.05,0-.07-.02-.06-.07.08,0,.16-.13.23-.42-.1,0-.15-.05-.15-.14.09,0,.18-.19.25-.56-.05,0-.07-.04-.08-.09.1,0,.15-.06.15-.2l-.06-.14c.06-.29.11-.43.16-.43l-.05-.36.02-.43c.1,0,.14.08.13.23h.07s0-.15,0-.15c-.09,0-.14-.04-.13-.14l.14-.08-.25-.51h.07s.13.08.13.08c.02-.19.07-.35.18-.49l-.08-.14c0-.14.08-.21.22-.2v-.14c-.13,0-.2-.18-.18-.51h.14s.01-.08.01-.08l-.08-.14.16-.06-.08-.16c.06-.09.08-.15.08-.2-.04-.09-.06-.16-.06-.21.09,0,.2-.26.33-.78l-.06-.14c.1-.24.15-.41.16-.5-.09,0-.14-.04-.13-.14v-.07s.15-.2.15-.2c0-.06-.02-.14-.06-.23l.09-.41-.27-.52h.07s.14.08.14.08c0-.1.04-.14.08-.13l-.08-.14.02-.07c0-.11.02-.2.08-.29l-.14-.3c.06-.09.08-.15.08-.2-.04-.09-.06-.17-.06-.23.1,0,.15-.04.16-.13h-.07c-.09,0-.15.06-.15.21h-.07s0-.21,0-.21c.14,0,.22-.11.24-.35l-.07-.02v-.12c.16,0,.26-.14.3-.42h.07c-.12-.56-.17-.85-.18-.87.1-.15.16-.26.17-.34h-.07c-.08.04-.18.06-.28.05l.36-.33-.34-.43v-.07s.3,0,.3,0l.08-.29v-.07s-.07,0-.07,0v.14s-.14-.01-.14-.01c0-.11.03-.2.08-.27-.04-.09-.06-.19-.07-.3.19.02.29-.05.3-.19h-.21s.26-.79.26-.79c-.14,0-.21-.06-.2-.15.07-.04.21-.05.43-.05,0-.1-.08-.15-.27-.15v-.07s.21,0,.21,0l-.06-.16c.09,0,.14-.03.14-.13-.05,0-.07-.02-.06-.07l.35-.12c.01.09.06.14.15.14,0-.17.25-.37.73-.6ZM86.46,53.16v.14s.06.01.06.01v-.14s-.06-.02-.06-.02ZM87,55.47h.14c0,.09-.06.14-.16.14v-.14ZM87.47,56.13v.29s.06,0,.06,0v-.29s-.06,0-.06,0ZM87.78,57.01h.07s0,.07,0,.07c0,.1-.06.14-.16.13l-.06-.14.14-.06ZM88.44,48.89l.06.16-.14.06-.06-.14.14-.08ZM88.65,56.83v.14c-.02.1-.07.14-.17.13v-.14c.03-.1.09-.14.17-.13ZM89.27,46.43v.14s-.16,0-.16,0c.02-.1.07-.15.16-.15ZM89.98,43.41v.07s.13,0,.13,0v-.07s-.13,0-.13,0ZM90.27,40h.07s-.01.07-.01.07c0,.1-.04.14-.14.15l-.08-.16.16-.06ZM90.38,54.84v.07s.14,0,.14,0v-.07s-.14,0-.14,0ZM90.54,38.94h.14s-.01.08-.01.08h-.14s.01-.08.01-.08ZM90.87,33.11h.21c0,.11-.06.15-.16.14l-.06-.14ZM93.15,42.4c-.01.29-.06.43-.14.43l.06.14c-.06.09-.08.18-.08.29.08.02.13.07.13.14h-.14s-.01.15-.01.15c.05,0,.12.03.22.08-.09.18-.16.27-.22.27h-.07s0-.16,0-.16l-.14.08.12.42c-.09.04-.16.06-.21.06,0,.05,0,.07.06.07-.08.42-.14.68-.17.79.08,0,.13.05.13.14-.05.19-.15.29-.29.28v.07c.08,0,.13.02.13.07-.11.3-.17.49-.18.58.05.09.07.16.06.21h-.14s.08.15.08.15v.14s-.16-.01-.16-.01v.07c.03.2.05.37.04.5h-.07s.05.5.05.5l-.29.28.06.14-.02.5c0,.07-.08.14-.22.2l.06.14v.29c-.1,0-.16.01-.17.06l.08.16c-.06.09-.08.15-.08.2l.19.3.16-.06h.14s.07.03.06.08l.16-.06s.07.02.06.07c.43-.04.69-.1.8-.17v.14s.06,0,.06,0v-.14s.08,0,.08,0c.1.02.14.07.13.16l.37-.05.13.07c.09-.04.19-.05.28-.05l-.06-.16v-.07s.14.08.14.08h.07s.09-.49.09-.49l-.14.06h-.07c.02-.09.07-.14.16-.15-.14-.23-.21-.4-.2-.49h.07s.15.08.15.08c0-.06.02-.13.08-.22-.19,0-.28-.1-.28-.29.05,0,.07-.03.07-.07l-.13-.08-.23.13-.06-.14c.14-.04.22-.09.23-.13-.04-.17-.06-.26-.06-.28v-.21s-.06-.02-.06-.02v-.21s.09-.13.09-.13c-.09,0-.16-.15-.19-.44h.07s-.08-.14-.08-.14l.02-.07.08-.36c-.11,0-.21-.16-.32-.5v-.14s.14.01.14.01v-.07s-.13-.01-.13-.01c0,.05-.04.07-.09.07v-.07s.08-.15.08-.15v-.21s.08,0,.08,0v-.21s-.18-.3-.18-.3c0-.05.02-.07.07-.06-.06-.27-.12-.46-.18-.58h.07c-.12-.56-.25-.97-.39-1.24h.21s.01-.06.01-.06c-.09-.12-.13-.23-.14-.35h-.07ZM92.42,28.83c.1.02.15.07.15.14h-.14s0-.14,0-.14ZM92.74,29.76v.07s.13.01.13.01v-.07s-.13-.01-.13-.01ZM93.47,29.38h.14s-.01.07-.01.07h-.14s.02-.07.02-.07ZM93.56,28.8h.14s0,.15,0,.15h-.14s0-.15,0-.15ZM94.74,30.93h.07c.09.02.14.07.15.15l-.16.06-.06-.14v-.07ZM95.24,32.66v.14c.1,0,.15-.04.14-.13h-.14ZM95.35,55.28h.07s-.01.14-.01.14h-.07s.01-.14.01-.14ZM95.45,54.56h.14s0,.08,0,.08h-.14s0-.08,0-.08ZM95.67,34.11h.14s0,.23,0,.23c-.1,0-.14-.06-.13-.15v-.07ZM96.15,55.17h.21s-.01.15-.01.15h-.22s.01-.15.01-.15ZM96.26,55.74h.07s-.01.16-.01.16l-.07-.02v-.14ZM96.3,39.06h.07c.09.02.14.07.15.15v.07c-.1-.05-.17-.07-.21-.08v-.14ZM96.38,40.64v.14s.06,0,.06,0v-.14s-.06,0-.06,0ZM96.42,41.28v.14s.06,0,.06,0v-.14s-.06,0-.06,0ZM96.5,40.99h.07s0,.14,0,.14h-.07s0-.14,0-.14ZM96.61,41.72h.14s-.01.07-.01.07h-.14s.01-.07.01-.07ZM97.02,56.07h.07s0,.14,0,.14h-.21c.02-.1.07-.15.14-.14ZM97.15,43.73l.08.16-.16.06-.06-.14.14-.08ZM97.33,55.72v.07c.09.13.13.23.12.3.09,0,.15-.04.16-.13-.07,0-.16-.09-.28-.24ZM97.42,46.04v.12s.06.02.06.02v-.14s-.06,0-.06,0ZM98.07,47.13h.14s0,.14,0,.14h-.14s0-.14,0-.14ZM98.28,48.93v.07s.15,0,.15,0v-.07s-.15,0-.15,0ZM101.86,50.22c.09.16.13.31.12.44v.07s-.14-.01-.14-.01c0-.12-.05-.24-.14-.35.02-.1.07-.15.16-.15Z"/>
    <path class="cls-1" d="M98.7,33.69l.06.16-.18.06-.04-.16.16-.06ZM98.66,34.56c.11.03.16.09.15.17l-.02.07h-.16s.03-.24.03-.24ZM98.66,33.99h.07s-.01.17-.01.17h-.07s.01-.17.01-.17ZM98.69,32.56l.23.03-.03.16c-.09-.07-.16-.11-.22-.12v-.07ZM98.74,32.81h.16c-.02.12-.08.16-.19.14l.03-.14ZM117.23,31.59l.16.03c.06,0,.09.04.08.09l.16-.06h.09s-.07.11-.19.23v.07c.06,0,.2.11.42.3,0-.08.1-.15.28-.21h.07s-.37.44-.37.44c.26.04.37.19.34.45-.05,0-.08,0-.09.06.26.04.38.19.34.45h-.07c0,.07.07.29.24.65l.16-.06h.09s-.03.18-.03.18l-.16-.03c-.03.33.03.61.21.83v.09s-.16-.03-.16-.03l.19.35c0,.06-.04.09-.09.08.04.09.05.23.03.41h.07s.03-.16.03-.16l.07.02c-.03.18-.02.32.03.41l-.05.23c.06,0,.1.17.11.49l-.23.53s.12.05.22.12l-.13.38-.03.23.16.03v.07c-.12,0-.18.01-.19.06.04.11.06.19.06.25-.11,0-.17.05-.19.13.15.03.22.36.2.99h-.07c-.04.25.02.39.18.42l-.13.38c.04.11.05.19.04.25l-.16-.03v.09s.15.01.15.01c0,.12-.04.22-.11.31l.09.5c-.06.1-.09.17-.1.22-.05.37,0,.67.12.9-.01.02-.07.1-.19.22h.16c-.02.11-.1.26-.23.47,0,.07,0,.37.05.89-.05,0-.08.01-.09.07l.15.1-.1.15v.07s.08.57.08.57l-.1.15c.04.11.05.22.03.34,0,.05-.03.07-.09.06,0,.06.03.09.08.09l-.16.54-.04.32c.11.02.16.05.15.1-.06.1-.09.17-.1.22.1.03.14.1.13.19v.07s-.16-.01-.16-.01l-.03.14.06.18h-.07s.06.16.06.16l-.07.47v.57s-.15.06-.15.06l.1.41-.1.15c.04.11.05.21.03.32h-.07c.04.11.05.19.05.25l-.1.15c.04.11.05.19.04.25l-.11.29.06.18c-.07.09-.11.19-.11.31l.02.41-.16.04.06.18-.13.38c.1.03.14.1.13.19-.11,0-.17.04-.17.13h.14c-.1.59-.19.87-.27.86l.06.18c-.07.14-.13.21-.19.2l.06.17v.07s-.14.4-.14.4l.18-.06s.01.08.07.09c-.19.24-.3.45-.32.6v.07s0,.41,0,.41h-.07s.06.16.06.16l-.02.07h-.07s-.15-.1-.15-.1c-.04.29-.1.57-.2.85l.18-.06-.03.16c-.1,0-.24.1-.43.34h-.09s.19.34.19.34l-.16.06-.15-.1c-.03.21-.07.32-.13.31l.06.18c-.17.15-.27.3-.29.44h-.16c0-.1-.03-.21-.12-.36l-.16.06-.32-.04-.48-.53.1-.15c0-.11-.04-.17-.15-.17v.14c-.12,0-.17-.07-.16-.17.11.02.17-.02.19-.13,0-.11-.07-.17-.22-.19v-.09s.25.04.25.04c.02-.13-.07-.23-.28-.29.02-.1.08-.14.17-.13.01-.31-.04-.56-.15-.74l.04-.31h.16s.03-.22.03-.22c.02-.11-.02-.17-.13-.17.07-.1.11-.18.12-.24l-.06-.16.23-.54c-.04-.09-.06-.2-.05-.32l.16-.54-.05-.32c0-.06.05-.14.12-.24v-.55s.12-.4.12-.4c-.02-.27-.01-.54.02-.79v-.16c.02-.06.06-.08.12-.08l-.12-.33.23-.53c-.09,0-.16-.18-.18-.51.11.02.17-.02.17-.13l-.15-.1c.22-.47.34-.75.36-.83-.06,0-.09-.04-.08-.09.05,0,.08-.03.09-.07l-.15-.1.11-.31c-.02-.19-.03-.3-.03-.32.15-.37.23-.58.24-.62l-.15-.1.13-.38v-.07s-.15-.03-.15-.03c0-.05.03-.12.1-.22.04-.26,0-.4-.1-.42l.1-.15.03-.23c.03-.18-.03-.37-.17-.58.07-.1.11-.17.12-.22l-.15-.1c.12-.16.2-.31.21-.45l.03-.23c.02-.11-.02-.17-.13-.19l.1-.15c.02-.13-.05-.62-.22-1.47h.09s.15.12.15.12v-.16c-.19-.03-.27-.22-.22-.58-.1.05-.51.69-1.21,1.92-.52.71-.83,1.2-.92,1.48-1.13,1.5-2.05,2.59-2.75,3.26,0,.05-.03.12-.1.22l-.15-.1h-.09s.06.16.06.16c0,.11-.07.15-.17.13,0-.1-.03-.15-.13-.17-.19.08-.33.11-.42.11,0-.05,0-.08-.06-.09-.02.07-.11.14-.28.21-.11,0-.15-.1-.12-.26h-.16s-.41.02-.41.02c0-.11-.14-.18-.45-.23l.1-.14v-.07c-.27-.04-.43-.24-.47-.62-.2-.35-.51-.66-.93-.93l-.4-.61c.06,0,.09-.02.09-.08-.31-.04-.54-.28-.71-.72-.11-.02-.26-.23-.47-.62-.07,0-.42-.38-1.06-1.1,0,.05-.04.07-.1.07l-.02-.5-.16.06c0-.09-.23-.36-.69-.81.03-.2-.04-.31-.21-.33,0,.1-.12.13-.34.1v.09c.21.05.3.14.28.27-.05,0-.08.01-.09.07.05,0,.07.03.06.09-.21.04-.32.11-.33.19v.07s.15.03.15.03l-.02.07c0,.11-.07.16-.17.15.03.26.09.4.18.42-.13.16-.2.31-.22.45l.16-.06.06.16-.13.4c.06,0,.16.27.3.83l.07.02c-.13.2-.21.35-.21.45-.03.48,0,.72.06.73.07,0,.14.1.21.26v.09s-.16-.03-.16-.03v.09s.12.03.2.1l-.13.4-.06.39c.22.05.32.14.3.27l-.16-.03c-.03.19.07.44.3.75-.11,0-.17.05-.17.15h.16s-.03.17-.03.17h-.14s-.04.22-.04.22l.18-.06h.16s-.01.1-.01.1l-.1.15c.23.03.37.15.44.38v.07s-.31-.27-.31-.27h-.07c.13.25.18.48.15.66l-.16-.03v.09c.09.14.13.25.12.33h.07c0-.1.04-.15.1-.15l-.06-.16c.07-.09.11-.19.11-.31h.09s-.09.57-.09.57l-.09.15s.07.03.06.09l.18-.06c.07,0,.14.1.21.26v.09c-.23,0-.35.06-.36.19l.13.26-.1.15c.24.03.48.21.72.56l.04-.23c.09.02.18.22.24.6l-.16.06c.02-.16-.05-.25-.21-.28v.09c-.02.07.07.22.25.44l.16-.06c.1.07.18.11.24.12l-.03.14h-.07s-.15-.1-.15-.1l-.03.16.09.57c-.11.19-.2.29-.27.28,0-.05-.03-.08-.08-.09v.07c-.02.11.05.17.21.19v.09s-.04.07-.1.06l.06.18s-.04.07-.09.07l.06.16v.09c-.03.12-.39.39-1.09.81h-.07s-.15-.1-.15-.1c0,.05-.04.07-.09.07.02-.17-.05-.26-.21-.28l-.03.16h-.07c-.25-.2-.36-.37-.34-.54h-.07s-.18.05-.18.05c-.1-.22-.27-.35-.5-.39v-.14c.17.02.25-.03.27-.13-.23-.24-.33-.49-.29-.76l.03-.23h.16s.01-.15.01-.15c-.16-.02-.23-.27-.22-.74-.05-.01-.07-.04-.08-.09h.09c-.28-.74-.41-1.18-.39-1.33l.03-.23c-.16-.03-.23-.09-.22-.19l.14-.47s-.1-.1-.21-.26l.1-.16v-.07c-.25-.07-.37-.17-.35-.29.13-.11.19-.19.19-.22-.11,0-.15-.07-.13-.17.11.02.17-.02.17-.13-.2-.03-.31-.2-.32-.52h.07c-.02-.22-.08-.41-.17-.59.05.01.08,0,.09-.06-.13-.02-.3-.58-.51-1.67.06,0,.09,0,.1-.06-.05,0-.13-.21-.25-.6-.11.04-.19.05-.25.05.18-.19.29-.41.33-.67v-.09s-.16.06-.16.06c-.06-.34-.09-.53-.08-.57.05.01.08-.01.09-.07-.07,0-.18-.16-.34-.45h-.09c.08-.15.14-.23.19-.22-.04-.07-.04-.23-.02-.48l.09.02c-.14-.2-.2-.37-.18-.51l-.18.06h-.07s.14-1.11.14-1.11c-.25-.07-.37-.17-.35-.29l.3.04v-.09c-.09,0-.14-.04-.13-.1.07-.09.1-.16.1-.22l-.28-.27s-.04.07-.09.06l-.06-.16h.16c-.04-.41-.12-.64-.24-.66,0,.11-.07.16-.17.15l-.09-.02c.07-.09.11-.19.13-.31l.15.1h.07s-.06-.16-.06-.16c.11.02.17-.02.19-.13v-.09s-.15-.01-.15-.01l.08-.15v-.09c-.14-.02-.26-.14-.34-.36h-.07s.03-.25.03-.25c.06,0,.14,0,.25-.05,0-.05-.07-.22-.25-.51.05,0,.08-.03.09-.07h-.16s-.01.13-.01.13h-.16s.03-.25.03-.25l-.16.06-.06-.18.5-.09-.06-.18v-.16s.1.01.1.01l.15.1.03-.23-.16-.03-.18.06s0-.08-.06-.09c0,.08-.13.18-.36.28l.03-.25c.16.03.3-.05.44-.25-.09-.15-.12-.29-.11-.42l-.24.13v-.09s.1-.15.1-.15c-.05-.01-.07-.04-.06-.09.1.02.15-.02.17-.13l-.23-.03-.03.14h-.16s.03-.17.03-.17l.19-.22-.06-.16.18-.06c-.03.16,0,.24.12.26l.23.03.03-.16-.23-.03v-.09s.1-.15.1-.15l-.23-.03c.02-.11.11-.15.26-.12v-.09c-.2-.03-.3-.1-.29-.2l.03-.14c0-.06.04-.08.09-.07l-.06-.18.03-.23-.15-.1c.07-.09.11-.19.13-.31l.07.02.15.1v-.07c-.09-.16-.16-.47-.2-.92.06,0,.08.04.07.09l.51-.16v-.09c-.08-.16-.15-.46-.2-.9l.07.02.37.29h.16c.03-.19.07-.29.11-.3l-.06-.16.03-.16.23.03v-.07s-.12-.05-.22-.12c0,.07-.1.14-.26.21l-.06-.16s.08-.03.09-.07c-.05,0-.07-.04-.07-.09.06,0,.09-.02.1-.08-.06,0-.08-.04-.07-.09l.16-.06h.09c.24.33.48.52.72.59v-.09s-.02-.41-.02-.41l.4.14c0-.12.12-.21.35-.28,0,.05.14.23.41.54h.09c0-.09.07-.14.17-.13v-.07s-.15-.03-.15-.03c0,.06-.04.08-.09.08,0-.06-.02-.14-.05-.25l.14.03c.52.17.76.39.72.65l-.23-.03v.07c.18.03.39.27.62.73.05.01.07.06.06.16l.16-.06c.06,0,.09.04.08.1l.16-.06c.1.06.18.09.24.1v.09s-.12.15-.12.15c.06,0,.08.03.07.09l-.18.06h-.07c.02-.17-.03-.26-.13-.28l-.03.25c.06,0,.23.15.5.46h.09s0-.07,0-.07h-.14c.02-.12.08-.17.17-.16l.12.26-.33.19c0-.11-.04-.16-.15-.17l-.04.31c.22.03.31.1.29.2l-.02.32h-.09s-.15-.12-.15-.12h-.07s-.01.08-.01.08c.15.02.21.16.18.42-.05-.01-.08.01-.09.07.32.04.47.11.45.21-.14.2-.23.29-.27.28.08.23.11.4.09.5l.16.03.18-.06-.03.16c0,.1-.09.13-.25.12l.19.35c-.07.1-.11.17-.12.22.1.02.22.28.39.77-.06,0-.09.03-.09.08.08,0,.17.13.26.36l-.14-.03-.03.16.18-.06c.19.56.31.85.37.86h.14s-.01.17-.01.17c0,.05-.04.07-.09.06.4.85.64,1.29.71,1.31l-.07.54c.16.03.24.18.27.43.05,0,.2.22.47.62.61,1.06.92,1.6.92,1.64.29.17.5.41.62.73.32.05.46.25.41.61l.15.1v-.16c-.03-.11-.04-.19-.03-.25l.16.03.02.41.26-.14h.09c-.02.13.12.26.42.39v.07s-.12.15-.12.15c.08.02.18.09.29.2l.03-.16.16.03.2.19c1.13-1.23,1.7-1.93,1.72-2.1.12,0,.25-.16.39-.51.08-.06.45-.66,1.11-1.79-.11,0-.16-.04-.15-.08,0-.08.13-.2.36-.35l.04-.25c.14-.09.34-.41.61-.95l-.12-.34c.12,0,.26-.27.43-.83.04.01.13-.11.27-.37v-.39s.01-.25.01-.25l.16.03v-.16s-.15-.01-.15-.01c.12-.21.24-.3.36-.28v-.07s-.15-.03-.15-.03c.1-.1.22-.35.35-.76.18-.13.33-.18.42-.18,0-.11-.07-.17-.22-.19v-.09c.22.03.33-.04.36-.19l-.13-.24c0-.06.04-.08.09-.08l-.06-.18.02-.07s.04-.07.09-.07l-.06-.16v-.09c.07,0,.16,0,.26-.05l-.06-.16c0-.06.04-.08.09-.07l-.06-.18.1-.15-.02-.48v-.07c.18-.2.35-.47.52-.82.09-.04.2-.05.32-.03l-.02-.41s.1-.04.24-.13ZM98.74,33.36l.16.03v.07s-.18-.03-.18-.03v-.07ZM98.84,35.63c.11.13.21.19.29.2,0,.11-.07.15-.17.13h-.16s.04-.33.04-.33ZM99.44,31.7l.03.32-.16.06-.15-.1c.1-.19.19-.29.27-.28ZM99.35,33.52c0,.11-.03.16-.08.14.04.12.06.2.05.25l-.03.25.15.08v-.14s0-.57,0-.57h-.09ZM99.32,35.04v.16s.06.01.06.01l.03-.16h-.09ZM99.33,32.56l.14.03.03-.16c-.11,0-.17.05-.17.13ZM99.45,38.42l.16.03c-.02.11-.08.15-.19.13l.03-.16ZM99.48,32.66l-.03.16h.16s.01-.13.01-.13l-.14-.03ZM99.51,36.76v.07s.15.01.15.01v-.07s-.15-.01-.15-.01ZM99.6,37.81l-.1.15v.07s.07.01.07.01c0-.06.05-.13.12-.22h-.09ZM99.65,39.89c.11.03.16.1.15.19l-.16-.03v-.16ZM99.72,31.4l-.03.25.38.13v-.16c-.12-.02-.24-.09-.35-.22ZM100.07,30.5l-.03.16h.09s.01-.15.01-.15l-.07-.02ZM100.39,29.33l.23.05v.07c-.02.11-.08.15-.19.13l-.06-.16v-.09ZM100.41,30.95v.07c.1,0,.15.04.15.1-.07.1-.11.17-.12.22.11.02.17-.02.17-.13v-.07c.02-.11-.02-.17-.12-.19h-.09ZM100.5,29.59l.16.03v.14c-.12,0-.17-.07-.16-.17ZM100.54,30c.11.03.15.09.13.17h-.14s.01-.17.01-.17ZM101.07,29.02l.07.02v.07c-.02.08-.11.15-.27.21h-.07s0-.09,0-.09c0-.07.1-.14.28-.21ZM101.01,30.69v.16s.06.02.06.02v-.16s-.06-.02-.06-.02ZM101.28,29.85l.23.03v.16s-.17-.01-.17-.01l.06.16v.09c-.16-.08-.23-.14-.24-.19.07-.1.11-.18.12-.24ZM101.23,30.88c.16.02.22.08.2.19l.32.04v-.07c-.2-.03-.29-.15-.27-.36-.07,0-.16.06-.26.21ZM101.25,29.45h.16s-.01.08-.01.08h-.14s0-.08,0-.08ZM101.63,29.65l.38.13.23.03v.16s-.1-.01-.1-.01c-.05,0-.07-.03-.06-.09-.12.04-.2.05-.25.05l.06.18-.18.06-.09-.5ZM101.98,29.46l.07.02v.14s-.1,0-.1,0l.03-.16ZM102.32,31.04v.14s.06.01.06.01l.03-.16h-.09ZM102.39,52.83l-.02.07h.16s.01-.06.01-.06h-.16ZM102.53,29.46c.11.02.15.08.13.17l-.14-.03v-.14ZM102.92,54.83h.16c-.02.12-.08.16-.17.14v-.14ZM102.99,32.08v.07c.09,0,.18.08.3.2l.07.02v-.09c-.07,0-.17-.07-.28-.2h-.09ZM103.16,30.9l.07.02c.11,0,.22.21.33.59v.07c-.02.08-.11.15-.27.21v-.14s.11-.15.11-.15c-.11-.02-.19-.2-.25-.53v-.07ZM103.6,45.3l.06.16-.16.06h-.09s.01-.09.01-.09c.03-.11.09-.15.17-.13ZM103.64,54.84c.12.11.23.18.31.2v.07c-.25-.03-.41-.02-.5.02v-.16c.12.02.18-.02.18-.13ZM103.67,30.49h.16s-.01.1-.01.1l-.14-.03v-.07ZM104,45.98h.07s-.01.18-.01.18h-.09s.03-.18.03-.18ZM104,50.22v.09s.15.01.15.01l.02-.07-.16-.03ZM104.27,54.99l-.03.16-.14-.03c.02-.1.08-.14.17-.13ZM104.23,32.96h.16s-.01.17-.01.17c-.11,0-.16-.07-.15-.17ZM104.4,36.02c.11.03.15.1.13.19v.07c-.1-.02-.15-.08-.15-.17v-.09ZM104.63,50.4l.07.02c.11.02.15.08.13.17-.1.04-.19.05-.25.05l.06.18-.07-.02c-.11-.02-.15-.08-.13-.17.1,0,.16-.07.19-.22ZM104.64,50.81h.16s-.01.08-.01.08h-.14s0-.08,0-.08ZM104.89,52.67v.09s.12.03.2.1v-.07s-.13-.1-.13-.1h-.07ZM105.53,38.49l-.03.16-.16-.03c.03-.1.09-.14.19-.13ZM109.06,44.56c0,.06-.03.14-.1.24l.14.08.07.02c-.04-.09-.05-.2-.03-.32l-.09-.02ZM117.7,31.73l.16.03-.03.16-.14-.03v-.16ZM118.3,33.19v.14s.06.02.06.02l.03-.16h-.09ZM118.73,33.64l.07.02v.14s-.08,0-.08,0v-.16Z"/>
    <path class="cls-1" d="M125.64,31.5h.14c0,.15.24.24.69.27,0,.06.1.1.31.13,0-.05.02-.07.07-.07v.07s.14-.08.14-.08h.09s0,.23,0,.23l.14-.09h.14s.11.04.24.15c0-.05.02-.07.07-.07,0,.07.44.3,1.31.7.51.32.82.59.92.78.34-.01.55.25.62.8.06,0,.09-.03.09-.07.22.04.37.16.46.36l-.07.15c.09,0,.14.05.15.14h-.14s0,.09,0,.09h.14c0-.06.02-.09.07-.1.01.35.08.59.19.74-.06,0-.09.03-.09.08.02,0,.1.05.24.15.01.3-.09.45-.29.46l.08.14c-.12.28-.31.51-.56.7l.08.16v.07c-.16,0-.29.04-.37.09,0-.09-.05-.14-.15-.14h-.09s0,.22,0,.22h-.07s-.22-.13-.22-.13c0,.14-.05.22-.15.22-.3-.11-.46-.23-.46-.36l-.14.1c-.07,0-.2-.12-.39-.36h-.16s0-.15,0-.15h.16s0-.15,0-.15l-.3.15-.09-.44s.07-.03.07-.07h-.07s.07-.16.07-.16v-.14c-.1,0-.15-.1-.16-.3h.07s0-.22,0-.22c-.2,0-.35-.09-.46-.29.05,0,.07-.03.07-.07-.36.01-.54-.1-.55-.35h-.21s.07-.15.07-.15v-.07s-.14.08-.14.08c0-.05-.03-.07-.09-.07,0,.05-.02.07-.07.07-.2-.27-.68-.44-1.43-.53v-.07c-.11.05-.18.08-.23.08l-.38-.22c-.54.09-.81.18-.81.26l-.15-.07h-.16s-.21.16-.21.16h-.09s0-.23,0-.23c-.09.06-.16.1-.21.1l.08.14-.14.08c-.11-.09-.29-.13-.54-.12v.14s-.07,0-.07,0c-.12-.09-.2-.14-.24-.13h-.14c0,.08-.04.18-.13.31l.08.14-.14.08c0-.14-.04-.21-.1-.21-.35.26-.56.39-.64.4,0-.06-.03-.09-.09-.08-.15.39-.29.64-.42.76l.08.16c-.09.16-.13.28-.13.38l.14-.09h.16s0,.15,0,.15h-.16s0,.08,0,.08c.12,0,.54.45,1.26,1.38h.07s-.08-.16-.08-.16v-.07s.14,0,.14,0l.08.3s-.07.03-.07.07c.34.28.62.45.84.48l.15.3.16-.08h.07s0,.07,0,.07l-.07.16c.17.08.63.4,1.37.98l.16-.08h.07c.19.2.67.43,1.45.69.12.15.48.36,1.06.64.61.18.92.32.92.41,0,.08.1.18.3.29v-.16s.08,0,.08,0c0,.11.1.26.3.45l.16-.09c.1.02.15.07.15.15-.05,0-.07.03-.07.07.15,0,.43.16.84.48l.53.43c.11,0,.21.09.31.29l1.03,1.32-.07.14v.07c.14,0,.22.09.23.29l.14-.08h.09s.09.37.09.37h-.07s.32.95.32.95c-.05,0-.07.03-.07.09.15,0,.24.19.25.58h-.07s.02.45.02.45h.21s-.02.06-.07.07l.08.16s-.02.07-.07.07l.15.3c-.19.03-.28.11-.28.22.08,0,.16.22.24.67h-.14s0,.08,0,.08l.09.37-.15-.07c-.09,0-.17.13-.22.38.05.09.08.17.08.23-.1,0-.19.2-.28.6h-.14s.08.16.08.16c-.28.65-.83,1.32-1.63,2.01v.07s-.16-.07-.16-.07c0,.11-.14.24-.43.39v.07s-.14,0-.14,0v-.16s-.08,0-.08,0l-.06.3c-.06,0-.09-.02-.09-.07-.15.1-.27.15-.37.16v-.07s-.14.08-.14.08h-.07s0-.14,0-.14l-.53.16.09.16v.07s-.23-.13-.23-.13v.14s-.23,0-.23,0l.08-.15v-.09s-.09,0-.09,0v.16s-.14,0-.14,0c-.12-.1-.23-.15-.31-.15-.03,0-.18.04-.44.11-.09-.06-.19-.08-.31-.08,0,.11-.04.16-.14.17,0-.11-.05-.16-.15-.15h-.23s0-.06,0-.06l-.37.09s-.07-.02-.07-.07l-.16.08h-.28s0-.13,0-.13h-.23c0,.1-.02.15-.07.15-.22-.09-.39-.23-.53-.43l-.16.08h-.14c0-.11-.48-.24-1.44-.39l.07-.15v-.07s-.07,0-.07,0l-.14.08c-.25-.24-.52-.35-.83-.34v-.07s.06-.16.06-.16c-.52-.43-.77-.67-.78-.72v-.07s.14.07.14.07h.07s0-.07,0-.07c-.17-.04-.26-.06-.29-.06,0,.05-.03.07-.09.07v-.3c-.19-.09-.33-.28-.41-.57l-.14.08c-.09,0-.14-.04-.15-.14l.07-.16-.16-.06.08-.15v-.37s-.1,0-.1,0l-.14.08c0-.2-.09-.3-.24-.29h-.07s.13-.68.13-.68l-.16.09v-.3s-.08,0-.08,0l.07-.16c-.05-.08-.08-.18-.08-.28.05,0,.07-.03.07-.09h-.14s0-.07,0-.07c.2-.13.29-.28.29-.46v-.37c-.12,0-.18-.04-.18-.14.2-.11.34-.17.44-.18l-.08-.14h.07s-.08-.14-.08-.14v-.09s.16,0,.16,0l-.02-.45c.41-.43.75-.69,1-.79,0-.14.05-.22.15-.22h.07s.14.06.14.06v-.07c.2.06.31.13.31.2-.09.06-.16.09-.21.1v.14s.08,0,.08,0l.3-.15c.25.26.37.48.38.64-.05,0-.07.03-.07.07h.23s0,.08,0,.08l-.07.15c.19.02.29.09.29.22h-.07c.09.19.17.28.24.28,0-.05.02-.07.07-.07v.07c0,.06-.02.09-.07.09l.08.14-.07.14h.21s0,.08,0,.08c0,.05-.02.07-.07.07.06.3.12.44.18.44l-.08.14v.07s.09,0,.09,0v-.14c.19.08.29.25.3.51,0,.06-.02.09-.07.09.05.25.18.37.39.36v.07s-.14,0-.14,0l.08.14c-.09.03-.14.08-.14.17.05,0,.12.02.22.06v-.16s.15,0,.15,0c0,.02.03.12.08.3-.11.02-.16.07-.15.17l.69.42s.02-.07.07-.07c.11.15.17.27.17.35h.14s.14-.08.14-.08c0,.03.13.15.39.36.11-.05.18-.08.23-.08.01.09.06.14.15.14l.68-.03.16-.08c0,.13.18.23.53.28v-.14s.14.07.14.07l.07-.16.16.08c1.13-.27,1.69-.66,1.67-1.19.19-.19.29-.39.28-.62v-.21c.05,0,.13-.04.22-.1l-.18-.51c.09-.05.17-.08.23-.08-.11-.16-.17-.31-.18-.44v-.23s.08-.15.08-.15l-.65-1.1c-.22-.19-.43-.44-.62-.73-.19-.03-.45-.27-.78-.72-.11,0-.42-.26-.94-.79h-.07c0,.05-.02.08-.07.08,0-.05-.48-.28-1.45-.69v-.14s-.15.08-.15.08h-.07c0-.15-.24-.24-.69-.27-.2-.03-.31-.1-.31-.2h-.37c-.09.02-.14-.03-.15-.14l-.16.08h-.07c0-.19-.03-.28-.08-.28-.09.05-.17.08-.23.08l-.39-.29-.14.08c-.22-.24-.48-.43-.77-.56,0,.09-.04.14-.14.15,0-.08-.41-.4-1.23-.93v-.07s-.16.08-.16.08c-.27-.23-.45-.34-.53-.34l.07-.16c0-.18-.22-.52-.63-1.03-.14-.29-.27-.44-.39-.43v-.14s.14,0,.14,0v-.16s-.15,0-.15,0l.07-.14h-.23s0-.06,0-.06l.07-.15s-.12-.03-.22-.08l.07-.15c0-.15-.09-.23-.24-.22v-.07s.02-.07.09-.07c-.07-.12-.13-.36-.19-.74h.07c-.05-.09-.08-.17-.08-.23v-.21s-.08,0-.08,0v-.07c0-.25.04-.38.13-.38l-.16-.37c0-.2.11-.36.36-.46l-.08-.16c.03-.39.1-.59.19-.6,0,.05.03.07.09.07v-.23s-.17,0-.17,0v-.14c.25-.12.4-.18.43-.18v-.07c-.14,0-.22-.04-.22-.14l.14-.08s.03.07.07.07c.22-.25.36-.45.42-.62l1.03-.63h.23c0-.07.27-.18.81-.34l-.07.14h.14s-.01-.29-.01-.29l.38.06h.07s0-.23,0-.23h.23s0,.15,0,.15h.14c0-.11.02-.17.06-.17l.16.07.14-.08s.07.02.07.07l.75-.1h.37s.45.04.45.04c.1-.05.18-.08.23-.08l.15.07h.23s0,.08,0,.08c.25,0,.37-.09.36-.25ZM120.38,46.43h.14c0,.1-.04.16-.14.16v-.16ZM121.93,52.05h.16s0,.14,0,.14h-.16s0-.14,0-.14ZM122.03,52.35h.07s0,.14,0,.14h-.07s0-.14,0-.14ZM127.3,43.85h.14s0,.06,0,.06h-.14s0-.06,0-.06ZM129.6,37.18v.07c.02.11.07.16.15.15v-.23s-.15,0-.15,0ZM132.98,49.69h.07s0,.14,0,.14h-.07s0-.14,0-.14ZM133.47,48.48h.14s0,.07,0,.07h-.14s0-.07,0-.07Z"/>
  </g>
</svg>